<svg xmlns="http://www.w3.org/2000/svg" viewBox="0 0 236 236"><defs><style>.cls-1{fill:none;}.cls-2{fill:#bff8ec;}.cls-3{fill:#6edfc7;stroke:#000;stroke-miterlimit:10;stroke-width:2px;}</style></defs><g id="Capa_2" data-name="Capa 2"><g id="Capa_1-2" data-name="Capa 1"><rect class="cls-1" width="236" height="236"/><path class="cls-2" d="M42.63,187.58,118.08,57.05l75.48,130.53Zm68.17-71.32c0,5.77.27,11.56-.07,17.31-.32,5.43,2.71,5.86,6.89,5.78s7.81.28,7.59-5.87c-.36-10.22-.24-20.46,0-30.68.11-5-.07-8.27-6.83-8.29s-8.11,2.58-7.62,8.38C111.1,107.32,110.8,111.8,110.8,116.26Zm18,47.45a10.67,10.67,0,1,0-21.3,1.15c.33,5.44,5.84,10.32,11.17,9.91A11.14,11.14,0,0,0,128.79,163.71Z"/><path class="cls-3" d="M118,205.25q-43.52,0-87,0c-12.5,0-15.33-4.91-9.16-15.6Q64.93,115.06,108,40.5c.79-1.36,1.73-2.64,2.59-4,5-7.63,10.21-7.89,14.9-.11,9,14.87,17.55,30,26.26,45q31.07,53.67,62.11,107.34c2.27,3.92,4.9,8,2.44,12.56-2.61,4.85-7.65,3.86-12.05,3.87Q161.15,205.29,118,205.25Zm-75.4-17.67H193.56L118.08,57.05Z"/><path class="cls-3" d="M110.8,116.26c0-4.46.3-8.94-.07-13.37-.49-5.8.94-8.4,7.62-8.38s6.94,3.31,6.83,8.29c-.21,10.22-.33,20.46,0,30.68.22,6.15-3.43,5.8-7.59,5.87s-7.21-.35-6.89-5.78C111.07,127.82,110.8,122,110.8,116.26Z"/><path class="cls-3" d="M128.79,163.71a11.14,11.14,0,0,1-10.13,11.06c-5.33.41-10.84-4.47-11.17-9.91a10.67,10.67,0,1,1,21.3-1.15Z"/></g></g></svg>