<svg xmlns="http://www.w3.org/2000/svg" viewBox="0 0 228 169"><defs><style>.cls-1{fill:none;}.cls-2{fill:#c43b71;}.cls-3{fill:#970e32;}.cls-4{fill:#aacce9;}.cls-5{fill:#8eb9dc;}.cls-6{fill:#ff9a2e;}.cls-7{fill:#ffcb49;}.cls-8{fill:#31193c;}.cls-9{fill:#ff97a6;}.cls-10{fill:#f4e7d4;}.cls-11{fill:#fa7089;}.cls-12{fill:#6c55b2;}.cls-13{fill:#3b2b5a;}.cls-14{fill:#71a3d5;}</style></defs><g id="Capa_2" data-name="Capa 2"><g id="Capa_1-2" data-name="Capa 1"><rect class="cls-1" width="228" height="169"/><path class="cls-2" d="M90.15,126.09c-5,17.28-48,27.21-65.59,10.55-4.78-4.54-8-10.84-9.88-18-7-26.84,5.56-65.16,29.15-62.91,6.27.6,11.85,2.45,16,5.53l.13.1c6.38,4.79,9.34,12.5,6.19,23-3.29,11,9.28,17.85,17.63,25.84a24.06,24.06,0,0,1,6,8A11.57,11.57,0,0,1,90.15,126.09Z"/><path class="cls-3" d="M51.62,119.83c-24.92,1.37-26-7.8-22.93-21.26S19.67,77,31.13,65.7c10.18-10,21.37-9.4,28.7-4.4l.13.1c6.38,4.79,9.34,12.5,6.19,23-3.29,11,9.28,17.85,17.63,25.84C84.89,118.81,72.77,118.65,51.62,119.83Z"/><path class="cls-3" d="M90.15,126.09c-5,17.28-48,27.21-65.59,10.55-4.78-4.54-8-10.84-9.88-18,3.53,8.39,9,3.83,12.79,5.46,8.82,3.78,4.93,18,33.14,14.56,17.24-2.11,28.49-10.6,29.13-20.54A11.57,11.57,0,0,1,90.15,126.09Z"/><path class="cls-4" d="M82.17,134c2.85,0,5.46,1.1,6.43,2.8,4.14,7.21,18.34,12.6,35.55,12.85,2,0,3.72-7.68,3.72-17.16s-1.67-17.17-3.72-17.17c-14.67.22-27.16,4.16-33.08,9.78a13.54,13.54,0,0,0-2.47,3.07c-1,1.71-3.6,2.81-6.43,2.81Z"/><path class="cls-5" d="M91.59,136.87a18,18,0,0,0,4.89,4c6.09,3.59,15.75,6.1,26.94,6.36.06-.11.12-.25.2-.42a36.45,36.45,0,0,0,1.71-10.56A157.43,157.43,0,0,0,91.59,136.87Z"/><path class="cls-6" d="M68.82,98.57l-4.43,11.09L46.81,119s-13.52-41.19,3.9-45a12.41,12.41,0,0,1,2.36-.28l11.16.46h.66C70.11,74.36,75.29,80.37,68.82,98.57Z"/><path class="cls-4" d="M89.13,105.22H64.06l5.29-19a2,2,0,0,1,1.94-1.47H92.91a1.46,1.46,0,0,1,1.41,1.85Z"/><path class="cls-7" d="M64.08,82.24c-1.89.76-2.94-.47-3.27-2a7.25,7.25,0,0,0-4.13-5,10.9,10.9,0,0,0-6-.38V74a12.41,12.41,0,0,1,2.36-.28l11.16.46h.66C65.62,77.3,65.89,81.49,64.08,82.24Z"/><path class="cls-8" d="M62.58,114.52c10.15-16.07,24.1-22,32.33-18,7.31,3.54,6.15,32.25,3.39,47.7H95s.36-24.37-4.32-31.83c-3.85,7.43-22.48,16.11-27.53,11.45C59.43,120.36,60.69,117.51,62.58,114.52Z"/><polygon class="cls-9" points="95.01 144.17 94.83 146.71 97.96 147.09 98.3 144.17 95.01 144.17"/><path class="cls-8" d="M94.83,146.7A36.54,36.54,0,0,1,92.65,151a1.24,1.24,0,0,0,.71,1.75,123.46,123.46,0,0,1,13.86,5.7.91.91,0,0,0,1-1.5c-3.6-3.41-7.48-6.54-10.27-9.84Z"/><rect class="cls-4" x="65.48" y="12.5" width="13.05" height="13.05" rx="1.43"/><rect class="cls-10" x="82.78" y="12.5" width="39.16" height="13.05" rx="1.43"/><rect class="cls-4" x="65.48" y="29.36" width="13.05" height="13.05" rx="1.43"/><rect class="cls-10" x="82.78" y="29.36" width="39.16" height="13.05" rx="1.43"/><path class="cls-6" d="M111.89,68.38a8.9,8.9,0,1,1-8.9-8.91A8.9,8.9,0,0,1,111.89,68.38Z"/><path class="cls-2" d="M103.94,68.38a.95.95,0,1,1-1-.95A1,1,0,0,1,103.94,68.38Z"/><circle class="cls-5" cx="21.7" cy="22.42" r="5.16"/><path class="cls-4" d="M56.06,20.79a1.65,1.65,0,1,1-1.65-1.64A1.65,1.65,0,0,1,56.06,20.79Z"/><path class="cls-11" d="M62.1,98c2.43-1.28,3.06-2.91,6-2.63s.18,2.78-.83,3.19-4.34,2.42-4.34,2.42Z"/><path class="cls-5" d="M21.17,25.8h0a.35.35,0,0,1-.31-.18L18.64,21.5a.36.36,0,0,1,.14-.48.35.35,0,0,1,.48.15l1.91,3.54,3-5.49a.36.36,0,0,1,.48-.14.35.35,0,0,1,.14.48l-3.27,6.06A.35.35,0,0,1,21.17,25.8Z"/><path class="cls-4" d="M107.52,87a1,1,0,1,1-.5,1.28A.94.94,0,0,1,107.52,87Zm2.09-1,9-4.61,1.13,2.43-9.31,3.9Z"/><path class="cls-12" d="M118.33,17.29H86.38a.49.49,0,0,1-.49-.49h0a.48.48,0,0,1,.49-.48h32a.48.48,0,0,1,.49.48h0A.49.49,0,0,1,118.33,17.29Z"/><path class="cls-12" d="M118.33,21.73H86.38a.49.49,0,0,1-.49-.48h0a.49.49,0,0,1,.49-.49h32a.49.49,0,0,1,.49.49h0A.49.49,0,0,1,118.33,21.73Z"/><path class="cls-12" d="M118.33,34.15H86.38a.49.49,0,0,1-.49-.48h0a.49.49,0,0,1,.49-.49h32a.49.49,0,0,1,.49.49h0A.49.49,0,0,1,118.33,34.15Z"/><path class="cls-12" d="M118.33,38.6H86.38a.49.49,0,0,1-.49-.49h0a.49.49,0,0,1,.49-.49h32a.49.49,0,0,1,.49.49h0A.49.49,0,0,1,118.33,38.6Z"/><rect class="cls-7" x="31.41" y="29.95" width="19.49" height="13.59" transform="translate(-14.01 35.93) rotate(-40.91)"/><polygon class="cls-6" points="29.34 37.99 41.16 36.74 44.07 25.23 29.34 37.99"/><path class="cls-9" d="M74.1,60.35c-2.37,4.89-7.34,11.7-10.55,7-1.68,2.91-1.38,4.29.69,6.81a16.22,16.22,0,0,1,.28,6.38,1.46,1.46,0,0,1-2.85.08c-.84-3.69-3.39-7.2-8.59-6.62-.23-6,2.52-16.74,10-18.57S73.87,57.91,74.1,60.35Z"/><path class="cls-7" d="M48.79,74.11c5.69,0,4.36,18.73-2.44,27.52C51.85,103.54,62.1,98,62.1,98l.84,3s-14.15,14.6-21.56,11.54S34.81,74,48.79,74.11Z"/><path class="cls-13" d="M68.44,57.37c3.59,5.81,10.47,4.51,12.15.46s-.38-10.63-9-9.94c0,0-1.07-4-8.33-3s-5,7-5,7-7-3-11.31,1.53-.23,10,0,10.4c-4.13.23-10.78,10.16-4.43,14.6s20-9.33,18.57-18.27C63.93,62,68.13,59.59,68.44,57.37Z"/><path class="cls-13" d="M48.91,114.51C60.46,97.87,75.28,91.69,83.54,95.82c7.34,3.67,4.28,33.39.42,49.37h-3.4S82.5,120,78.15,112.26c-4.47,7.68-24.31,16.66-29.24,11.84C45.27,120.55,46.76,117.61,48.91,114.51Z"/><polygon class="cls-9" points="80.56 145.19 80.21 147.82 83.42 148.22 83.96 145.19 80.56 145.19"/><path class="cls-13" d="M80.21,147.82a43.48,43.48,0,0,1-2.53,4.43,1.21,1.21,0,0,0,.62,1.8,120.92,120.92,0,0,1,14,5.91,1,1,0,0,0,1.14-1.56c-3.5-3.52-7.31-6.76-10-10.18Z"/><path class="cls-4" d="M81,130.94a9.56,9.56,0,0,1-2.7-.7,5.15,5.15,0,0,1-2.51-2c-2.72-4.78-9.89-8.75-19.44-11a77.4,77.4,0,0,0-16.11-1.88v34.33c16.94-.25,31-5.49,35.35-12.52a2.9,2.9,0,0,0,.2-.33c.85-1.47,2.88-2.49,5.27-2.74Z"/><path class="cls-14" d="M43.92,132.52c0,9.48-1.66,17.16-3.71,17.16S36.5,142,36.5,132.52s1.66-17.17,3.71-17.17S43.92,123,43.92,132.52Z"/><path class="cls-5" d="M45.67,133.6A52,52,0,0,1,44,147.09c9.62-.6,17.9-2.86,23.42-6a16.49,16.49,0,0,0,6-5.27l.06-.1.07-.11a6.14,6.14,0,0,1,1.14-1.43C68,132.8,57.79,132.14,45.67,133.6Z"/><path class="cls-4" d="M42.18,133.51a5.43,5.43,0,0,0-3.94.08c.08,6.08.86,11.09,1.85,13.49q.06.15.12.27.06-.12.12-.27C41.32,144.67,42.11,139.63,42.18,133.51Z"/><path class="cls-13" d="M68.94,62.29c-.5.65-1,1.08-1.18,1s.13-.74.63-1.38,1-1.09,1.19-1S69.44,61.64,68.94,62.29Z"/></g></g></svg>