<svg xmlns="http://www.w3.org/2000/svg" viewBox="0 0 244.2 146.05"><defs><style>.cls-1{fill:#ff97a6;}.cls-2{fill:#295a6e;}.cls-3{fill:#31193c;}.cls-4{fill:#3b2b5a;}.cls-5{fill:#f4e7d4;}.cls-6{fill:#357a5f;}.cls-7{fill:#ff9a2e;}.cls-8{fill:#ad2452;}.cls-9{fill:#c43b71;}.cls-10{fill:none;}</style></defs><g id="Capa_2" data-name="Capa 2"><g id="Layer_1" data-name="Layer 1"><path class="cls-1" d="M178.16,40.1c-2.42-5.21-1.18-8.1.33-8.83s1.81,0,1.81,0l.44,1.28s-3,.65-.38,6.76Z"/><path class="cls-2" d="M202.24,41.2c-4.73-1.29-7.86,4.49-9.41,12.76a.77.77,0,0,1-1.23.48c-2.41-1.91-8.48-7.29-11.24-15.13l-2.2.79s3.21,13.8,12.63,22.09a4.5,4.5,0,0,0,6.35-.34C204,54.27,207.93,42.76,202.24,41.2Z"/><path class="cls-1" d="M211.06,110.74c.56-1,1.09-1.89,1.63-2.91l2.94,1.29-1,1.62Z"/><path class="cls-3" d="M214.64,110.74c1.51,2.53,5.57,4.12,8.76,5a.48.48,0,0,1-.1.94h-14c-.84,0-1.17-.74-.68-1.57.65-1.13,1.57-2.73,2.46-4.39Z"/><path class="cls-4" d="M214.16,67.76c9.26,10,11.28,19.07,11.28,19.07s-1.28,9.45-9.81,22.29l-2.94-1.29s4.5-9.44,2.39-17.69c-6.05-7.07-9.2-8.72-9.2-8.72s-15.13,12-25.83,27.42l-2.34-1.56s8.93-27.13,21.64-36.81C199.35,70.47,210.4,66.75,214.16,67.76Z"/><rect class="cls-5" x="168.56" y="118.78" width="15.65" height="15.65" rx="2.14"/><rect class="cls-5" x="190.23" y="118.78" width="15.65" height="15.65" rx="2.14"/><rect class="cls-5" x="211.9" y="118.78" width="15.65" height="15.65" rx="2.14"/><path class="cls-6" d="M217,66.15a5.11,5.11,0,0,1-4.47,3.45l-13.17.88c-3.28-7.14-7.14-29.87,4-30h1c2.35,0,8-.12,9.57-.13a6.32,6.32,0,0,1,1.52.17C219.4,41.45,223.72,46.5,217,66.15Z"/><path class="cls-4" d="M175.67,131.3h0a.48.48,0,0,1-.42-.25l-3-5.61a.48.48,0,1,1,.85-.45l2.6,4.82,4-7.46a.48.48,0,1,1,.84.45l-4.45,8.25A.49.49,0,0,1,175.67,131.3Z"/><path class="cls-4" d="M197.34,131.3h0a.48.48,0,0,1-.42-.25l-3-5.61a.49.49,0,0,1,.2-.65.48.48,0,0,1,.65.2l2.6,4.82,4-7.46a.48.48,0,1,1,.84.45l-4.45,8.25A.48.48,0,0,1,197.34,131.3Z"/><path class="cls-7" d="M186.52,66.27a1.25,1.25,0,0,1-1,0,1.24,1.24,0,0,1-.63-1.64c1.16-2.63-1.61-6.17-4.28-9.58s-5.18-6.63-4.36-9.62c.46-1.67,1.86-2.94,4.27-3.87a1.24,1.24,0,1,1,.9,2.31c-1.61.62-2.54,1.37-2.78,2.21-.49,1.8,1.75,4.66,3.92,7.44,3,3.81,6.35,8.12,4.59,12.11A1.22,1.22,0,0,1,186.52,66.27Z"/><path class="cls-8" d="M189,28.82h4.65A3.21,3.21,0,0,1,196.83,32V79a0,0,0,0,1,0,0H185.76a0,0,0,0,1,0,0V32A3.21,3.21,0,0,1,189,28.82Z" transform="translate(-6.54 72.81) rotate(-21.2)"/><path class="cls-9" d="M204.64,75.6S219,109.79,220,124.91l-2.08.81c-9.44-11.86-21.87-46.81-21.87-46.81Z"/><rect class="cls-7" x="179.3" y="39.39" width="13.76" height="2.61" rx="0.76" transform="translate(-2.12 70.07) rotate(-21.2)"/><path class="cls-4" d="M221,128.58a.66.66,0,0,1,0,.5.65.65,0,0,1-.36.35.64.64,0,0,1-.84-.37l-1.36-3.51,1.22-.47Z"/><path class="cls-2" d="M215.51,40.55c-3.58,1.59-8,6.33-7.95,9.83-2.68-2.52-3.37-7.33-3.14-9.87,2.35,0,8-.12,9.57-.13A6.32,6.32,0,0,1,215.51,40.55Z"/><path class="cls-2" d="M211.72,59.23c-.19-13.08,1.87-17.1,5.79-17.78s6.74,6.66.93,21c-4.95,5.69-16.63,12.23-16.63,12.23l-1.16-2.63S210,65.29,211.72,59.23Z"/><path class="cls-1" d="M200.65,72.07c-2.54,1.81-7.12,2.52-7.35,5s.92,3.05,1.44,3.05,1-1.49,2.53-2.34,2.53-1,4.54-3.08Z"/><polygon class="cls-1" points="178.77 111.38 180.05 108.84 177.71 107.28 175.7 110.25 178.77 111.38"/><path class="cls-3" d="M175.7,110.25a33.36,33.36,0,0,1-11.36,5.51c-.6.14-.6.94,0,.94H175.8a2.23,2.23,0,0,0,2-1.57c.28-1.13.5-2.09,1-3.75Z"/><path class="cls-1" d="M220.5,27.92a28.06,28.06,0,0,0-1.34,5.55l-1.61-.55s-.87,4.22-3.71,1.83c-.55,1.74.15,5.63.15,5.63s-5.65,3.13-6.8,7.76a13.49,13.49,0,0,1-1.88-7.76s5.87-6.82,5.89-10.26S217.44,22.28,220.5,27.92Z"/><path class="cls-4" d="M215.51,30.94c.21-3.8,2.42-4.61,3.6-3.52a3.35,3.35,0,0,0,5.28-3.08c-.14-4.12-3.67-4.17-5-2.93s-3.81-.46-4.54-1.28-5.5-.28-6.69,5.27,2,7.92,2,7.92a6.44,6.44,0,0,0,3.14-3c-1-1.05-1-3.12.91-2.57s.14,3.16.14,3.16Z"/><rect class="cls-10" width="244.2" height="146.05"/></g></g></svg>