<svg xmlns="http://www.w3.org/2000/svg" viewBox="0 0 244.2 146.05"><defs><style>.cls-1{fill:#ff5e4c;}.cls-2{fill:#1f6864;}.cls-3{fill:#ffcb49;}.cls-4{fill:#ff9a2e;}.cls-5{fill:#357a5f;}.cls-6{fill:#295a6e;}.cls-7{fill:#f4e7d4;}.cls-8{fill:#3b2b5a;}.cls-9{fill:#71a3d5;}.cls-10{fill:#ff97a6;}.cls-11{fill:#31193c;}.cls-12{fill:#aacce9;}.cls-13{fill:#8eb9dc;}.cls-14{fill:#c43b71;}.cls-15{fill:none;}</style></defs><g id="Capa_2" data-name="Capa 2"><g id="Layer_1" data-name="Layer 1"><rect class="cls-1" x="189.15" y="33.9" width="32.61" height="47.54"/><path class="cls-2" d="M203.2,117.69c-7.33-5.4-3.78-9.58-1.61-9-5.5-2.79-4.26-7.57-1.79-7.18-5.27-4-4.32-12.1.78-8.4-.13-2,3.21-2.52,3.95,0,1.66-1.7,4.82,1.17,2.79,5.44,2.11-1.61,9.91,2.39,3.39,9.09,4-2.63,6.82,5.76,2.36,10.11Z"/><path class="cls-3" d="M221,126.92a12.69,12.69,0,0,1-2.61,7.83,11,11,0,0,1-.78.89,2.57,2.57,0,0,1-1.86.77h-9.36a2.57,2.57,0,0,1-1.86-.77,12.47,12.47,0,0,1-3.39-8.72,13.29,13.29,0,0,1,.53-3.73,12.33,12.33,0,0,1,1.11-2.66h16.58A13,13,0,0,1,221,126.92Z"/><path class="cls-4" d="M211,120.54h8a1.49,1.49,0,0,0,1.53-1.43h0a1.48,1.48,0,0,0-1.53-1.42H203a1.48,1.48,0,0,0-1.53,1.42h0a1.49,1.49,0,0,0,1.53,1.43Z"/><path class="cls-5" d="M218.13,117.69h-12c-6.35-5.29-4.74-15.5.72-12.29-9.38-8.16-.75-13,2.16-11.07-3.38-5.19-.16-8.68,2.22-6.62.28-2.23,2.62-2.44,3.94-1.43a2.07,2.07,0,0,1,.88,1.48c5.4-4.49,8.31,5.4,2.76,10.22,2.91-.47,5.45,5.35-.64,8.74C220.68,106,225.89,111.12,218.13,117.69Z"/><path class="cls-6" d="M218.13,117.69h-7.69c9.4-13.87-3.68-12.84,1.31-20.92,3.13-5.06,3.64-8.39,3.41-10.49a2.07,2.07,0,0,1,.88,1.48c5.4-4.49,8.31,5.4,2.76,10.22,2.91-.47,5.45,5.35-.64,8.74C220.68,106,225.89,111.12,218.13,117.69Z"/><path class="cls-4" d="M218.36,134.75a11,11,0,0,1-.78.89,2.57,2.57,0,0,1-1.86.77h-9.36a2.57,2.57,0,0,1-1.86-.77,12.47,12.47,0,0,1-3.39-8.72,13.29,13.29,0,0,1,.53-3.73,13.63,13.63,0,0,0,16.72,11.56Z"/><polygon class="cls-7" points="193.49 37.77 197.57 37.34 197.25 41.16 193.54 41.21 193.49 37.77"/><polygon class="cls-8" points="201.65 37.34 205.67 37.4 205.09 41.63 201.17 41.31 201.65 37.34"/><polygon class="cls-6" points="193.44 44.7 197.51 44.81 197.04 48.62 193.39 48.41 193.44 44.7"/><path class="cls-7" d="M209.69,43.38c.16,0,3.76-.32,3.76-.32l-.53,4.61h-3.81Z"/><polygon class="cls-8" points="215.73 43.22 219.43 43.17 219.33 46.82 215.41 47.4 215.73 43.22"/><path class="cls-7" d="M215.46,52.27a10,10,0,0,0,3.5-1.11l1.58,2.44a11.64,11.64,0,0,1-3.7,1.74Z"/><polygon class="cls-6" points="210.64 52.01 213.45 52.06 213.03 56.19 209.8 56.19 210.64 52.01"/><polygon class="cls-7" points="193.54 52.7 197.04 52.75 196.99 56.24 193.02 56.35 193.54 52.7"/><polygon class="cls-8" points="193.39 65.35 193.39 61.43 197.04 61.38 197.15 64.98 193.39 65.35"/><polygon class="cls-7" points="201.49 64.45 201.59 61.06 205.14 60.95 205.24 64.87 201.49 64.45"/><polygon class="cls-6" points="208.95 60.8 212.44 60.8 211.86 64.71 208.21 64.61 208.95 60.8"/><polygon class="cls-7" points="215.88 64.18 216.04 60.69 219.75 60.69 219.22 64.55 215.88 64.18"/><polygon class="cls-6" points="193.49 71.91 194.02 68.47 197.67 68.58 197.62 71.59 193.49 71.91"/><polygon class="cls-7" points="207.41 72.49 208.37 68.1 211.33 68.42 211.12 72.23 207.41 72.49"/><path class="cls-6" d="M213.71,76.68l1.65-3.23a6.34,6.34,0,0,0,3.75,3.38L216.31,79A7.56,7.56,0,0,1,213.71,76.68Z"/><path class="cls-8" d="M224.67,74.93c-.16-1.32,1.17-3.81,1.17-3.81l2.7,1.53a8.36,8.36,0,0,0-.59,4.61Z"/><path class="cls-8" d="M224.14,89.8a12.67,12.67,0,0,0,1-4.5l3.07,3.18s-1.91,2.28-1.91,4A6.37,6.37,0,0,0,224.14,89.8Z"/><path class="cls-8" d="M191.37,88.16,194,85.3a9.23,9.23,0,0,0,2.17,2s-2.17,2.33-2.38,4.13Z"/><path class="cls-8" d="M194.39,131.36a4.75,4.75,0,0,1,2.23-2.8l1.9,1.58s-1.75,1.64-1.64,2.92Z"/><path class="cls-8" d="M198.81,77.53a4.55,4.55,0,0,0,3-1.76s-2.08.06-3-.81a7.7,7.7,0,0,1-5.13,1.78A5.09,5.09,0,0,0,198.81,77.53Z"/><path class="cls-9" d="M180.27,65.71a26,26,0,0,0-2.33-10.77,3.06,3.06,0,0,0-5.81,1.24,36.16,36.16,0,0,0,1.29,10.13c.83,3.18,3.32,4.4,6.18,6a42.8,42.8,0,0,0,12.32,5l.54-1.77C187.24,73.78,182.41,66.9,180.27,65.71Z"/><path class="cls-10" d="M192.46,75.54c2.06,0,3.42,2.64,6.35,2-.37,1.28-2.8,1.62-4.26.76a7,7,0,0,0-2.63-1Z"/><path class="cls-10" d="M182.74,41.17c.64,4.28-.24,7.63-3.3,6.59-.93,1.79,1.16,7.62,1.16,7.62l-7-1S173.79,39.78,182.74,41.17Z"/><path class="cls-10" d="M183.61,129.51h-2.55s.47-16.23-3.82-30.7a54.65,54.65,0,0,0-3-7.86s-8.86-4.71-3.3-15.18c0,0,3.49-.65,10.65.57a49.41,49.41,0,0,1,6.58,20.93C189.38,110.15,186.12,122.22,183.61,129.51Z"/><path class="cls-10" d="M181.63,83.12c-3.62,4.37-6.61,10.2-9,16.25a162.55,162.55,0,0,0-8.23,30.14h-2.74a166.15,166.15,0,0,1,1-30.81c1.3-9.49,3.77-18.54,8.36-22.93C171,75.77,178.61,79.17,181.63,83.12Z"/><path class="cls-9" d="M180.85,131.93c.1-.82.18-1.66.22-2.43h2.54l.06,2.43Z"/><path class="cls-8" d="M183.67,131.93c2,2,5.75,3.24,8.55,3.95a.38.38,0,0,1-.1.74h-10.7a1.06,1.06,0,0,1-1-1.24c.14-.88.33-2.14.48-3.45Z"/><path class="cls-9" d="M161.45,131.93c.09-.82.17-1.66.21-2.43h2.55l.06,2.43Z"/><path class="cls-11" d="M164.27,131.93c2,2,5.74,3.24,8.54,3.95a.38.38,0,0,1-.09.74H162a1.07,1.07,0,0,1-1.06-1.24c.15-.88.34-2.14.49-3.45Z"/><path class="cls-12" d="M170.41,73a18.91,18.91,0,0,1,.57,2.79l5,.74,5.68-.18a8.9,8.9,0,0,1-.32-1.62c-.25-2.2-.08-6.09,3.74-8.35,5.54-3.29,3.41-13.16-10.68-14.07C163.42,51.59,168.54,65.61,170.41,73Z"/><path class="cls-13" d="M170.41,73a18.91,18.91,0,0,1,.57,2.79l5,.74,5.68-.18a8.9,8.9,0,0,1-.32-1.62C178.15,73.46,173.35,73.09,170.41,73Z"/><path class="cls-11" d="M181.63,83.12c-3.62,4.37-6.61,10.2-9,16.25a20.87,20.87,0,0,1-10-.67c1.3-9.49,3.77-18.54,8.36-22.93C171,75.77,178.61,79.17,181.63,83.12Z"/><path class="cls-9" d="M191.53,64.51a28.85,28.85,0,0,0-7.84-9.42,3.41,3.41,0,0,0-5.09,4.22,40.4,40.4,0,0,0,6.49,9.32,6.73,6.73,0,0,0,9.25.8A47.84,47.84,0,0,0,204.81,59l-1.58-1.33C199.15,62.25,194.26,64.58,191.53,64.51Z"/><path class="cls-7" d="M207.56,54.82c.14-1.44.81-3.34,1.61-3.83a6.28,6.28,0,0,0-4.16.72A10.93,10.93,0,0,1,205,55l-.88,1.61,3.16-.67Z"/><path class="cls-10" d="M203.23,57.68c-.08-1.4.88-2.71,1.76-2.73-.36,1.06,1.23,1.31,2.57-.13,1.08.82-.59,3.39-2.75,4.19Z"/><path class="cls-14" d="M179.19,43.69c4.62-1.91,5.19-2.44,3.77-6.4s-8.36-5.14-11.27.27.71,5.92-4.59,10.14-6.79,6.28-5.53,10.89,12.28,4.37,15.22,2S174,54.75,175,49.64,178.34,44,179.19,43.69Z"/><path class="cls-8" d="M188.21,97.27c-2.65,1.56-6.61,2.09-11,1.54a54.65,54.65,0,0,0-3-7.86s-8.86-4.71-3.3-15.18c0,0,3.49-.65,10.65.57A49.41,49.41,0,0,1,188.21,97.27Z"/><rect class="cls-14" x="221.76" y="33.9" width="1.1" height="47.54" transform="translate(444.62 115.34) rotate(180)"/><rect class="cls-15" width="244.2" height="146.05"/></g></g></svg>