<svg xmlns="http://www.w3.org/2000/svg" viewBox="0 0 244.2 146.05"><defs><style>.cls-1{fill:#c43b71;}.cls-2{fill:#970e32;}.cls-3{fill:#f4e7d4;}.cls-4{fill:#8eb9dc;}.cls-5{fill:#aacce9;}.cls-6{fill:#6c55b2;}.cls-7{fill:#31193c;}.cls-8{fill:#3b2b5a;}.cls-9{fill:none;}</style></defs><g id="Capa_2" data-name="Capa 2"><g id="Layer_1" data-name="Layer 1"><rect class="cls-1" x="79.04" y="123.73" width="5.11" height="11.72" transform="translate(202.97 36.21) rotate(84.63)"/><path d="M75.4,132.63a.11.11,0,0,1-.07,0,.16.16,0,0,1,0-.07l-.43-4.65a.11.11,0,0,1,.1-.12l.57-.06a.11.11,0,0,1,.08,0,.08.08,0,0,1,0,.07l.44,4.65a.11.11,0,0,1-.1.12l-.57.06ZM75.09,128l.41,4.42.36,0-.42-4.42Z"/><path d="M73.63,133a.12.12,0,0,1-.11-.1L73,127.83a.11.11,0,0,1,0-.08.08.08,0,0,1,.07,0l1.8-.17c.06,0,.11,0,.12.1l.48,5.09a.13.13,0,0,1,0,.08l-.07,0-1.8.17Zm-.36-5.1.46,4.87,1.57-.15-.45-4.87Z"/><polygon class="cls-2" points="93.46 133.17 87.67 131.59 87.19 126.5 92.59 123.86 93.46 133.17"/><rect class="cls-2" x="81.32" y="126.28" width="0.71" height="4.12" transform="translate(201.8 35) rotate(84.63)"/><polygon class="cls-3" points="10.48 64.74 27.09 117.69 32.35 117.69 48.96 64.74 10.48 64.74"/><rect class="cls-3" x="62.2" y="39" width="14.1" height="14.1" rx="1.53"/><rect class="cls-3" x="62.2" y="57.74" width="14.1" height="14.1" rx="1.53"/><rect class="cls-3" x="62.2" y="76.49" width="14.1" height="14.1" rx="1.53"/><circle class="cls-4" cx="29.72" cy="58.7" r="20.16" transform="translate(-33.84 75.7) rotate(-78.12)"/><circle class="cls-5" cx="29.72" cy="58.7" r="18.76"/><path class="cls-6" d="M31.08,58.7a1.36,1.36,0,1,1-1.36-1.35A1.36,1.36,0,0,1,31.08,58.7Z"/><polygon class="cls-6" points="30.16 49.3 28.18 42.54 27.52 49.55 28.8 53.94 29.26 58.75 29.72 58.7 30.18 58.66 29.73 53.85 30.16 49.3"/><polygon class="cls-6" points="39.17 62.13 46.53 63.42 39.57 60.7 34.8 59.86 29.79 58.45 29.72 58.7 29.65 58.95 34.65 60.36 39.17 62.13"/><path d="M47,58.81H44.61a.1.1,0,0,1-.11-.11.11.11,0,0,1,.11-.11H47a.11.11,0,0,1,.11.11A.1.1,0,0,1,47,58.81Z"/><path d="M14.84,58.81H12.45a.1.1,0,0,1-.11-.11.11.11,0,0,1,.11-.11h2.39a.11.11,0,0,1,.11.11A.1.1,0,0,1,14.84,58.81Z"/><path class="cls-6" d="M29.72,44a.22.22,0,0,1-.22-.22V41.43a.22.22,0,0,1,.44,0v2.39A.22.22,0,0,1,29.72,44Z"/><path class="cls-6" d="M29.72,76.2A.22.22,0,0,1,29.5,76V73.59a.22.22,0,0,1,.44,0V76A.22.22,0,0,1,29.72,76.2Z"/><path class="cls-6" d="M22.28,46a.21.21,0,0,1-.19-.11l-1.2-2.06a.24.24,0,0,1,.08-.31.24.24,0,0,1,.31.08l1.19,2.07a.22.22,0,0,1-.08.3A.23.23,0,0,1,22.28,46Z"/><path class="cls-6" d="M38.36,73.88a.24.24,0,0,1-.2-.11L37,71.71a.24.24,0,0,1,.08-.31.24.24,0,0,1,.31.08l1.19,2.07a.22.22,0,0,1-.08.3Z"/><path class="cls-6" d="M16.83,51.48a.2.2,0,0,1-.11,0l-2.07-1.19a.23.23,0,0,1-.08-.3.22.22,0,0,1,.3-.08l2.07,1.19a.22.22,0,0,1,.08.3A.21.21,0,0,1,16.83,51.48Z"/><path class="cls-6" d="M44.68,67.56a.2.2,0,0,1-.11,0L42.5,66.34a.23.23,0,0,1-.08-.3.22.22,0,0,1,.3-.09l2.07,1.2a.21.21,0,0,1,.08.3A.23.23,0,0,1,44.68,67.56Z"/><path class="cls-6" d="M47,58.93H44.61a.23.23,0,1,1,0-.45H47a.22.22,0,0,1,.22.22A.22.22,0,0,1,47,58.93Z"/><path class="cls-6" d="M14.84,58.93H12.45a.22.22,0,0,1-.22-.23.22.22,0,0,1,.22-.22h2.39a.22.22,0,0,1,.22.22A.22.22,0,0,1,14.84,58.93Z"/><path class="cls-6" d="M37.16,46l-.11,0a.22.22,0,0,1-.08-.3l1.19-2.07a.23.23,0,0,1,.39.23l-1.19,2.06A.24.24,0,0,1,37.16,46Z"/><path class="cls-6" d="M21.09,73.88a.27.27,0,0,1-.12,0,.22.22,0,0,1-.08-.3l1.2-2.07a.22.22,0,0,1,.3-.08.24.24,0,0,1,.08.31l-1.19,2.06A.23.23,0,0,1,21.09,73.88Z"/><path class="cls-6" d="M42.61,51.48a.22.22,0,0,1-.11-.41l2.07-1.19a.21.21,0,0,1,.3.08.22.22,0,0,1-.08.3l-2.07,1.19A.2.2,0,0,1,42.61,51.48Z"/><path class="cls-6" d="M14.76,67.56a.23.23,0,0,1-.19-.11.22.22,0,0,1,.08-.3L16.72,66A.22.22,0,0,1,17,66a.22.22,0,0,1-.08.3l-2.07,1.19A.2.2,0,0,1,14.76,67.56Z"/><path class="cls-6" d="M74.1,43.12H64.41a.36.36,0,0,1-.36-.36h0a.36.36,0,0,1,.36-.36H74.1a.36.36,0,0,1,.36.36h0A.36.36,0,0,1,74.1,43.12Z"/><path class="cls-6" d="M74.1,46.41H64.41a.36.36,0,0,1-.36-.36h0a.36.36,0,0,1,.36-.36H74.1a.36.36,0,0,1,.36.36h0A.36.36,0,0,1,74.1,46.41Z"/><path class="cls-6" d="M74.1,49.7H64.41a.36.36,0,0,1-.36-.36h0a.36.36,0,0,1,.36-.35H74.1a.36.36,0,0,1,.36.35h0A.36.36,0,0,1,74.1,49.7Z"/><path class="cls-6" d="M74.1,61.87H64.41a.36.36,0,0,1-.36-.36h0a.36.36,0,0,1,.36-.36H74.1a.36.36,0,0,1,.36.36h0A.36.36,0,0,1,74.1,61.87Z"/><path class="cls-6" d="M74.1,65.16H64.41a.36.36,0,0,1-.36-.36h0a.36.36,0,0,1,.36-.36H74.1a.36.36,0,0,1,.36.36h0A.36.36,0,0,1,74.1,65.16Z"/><path class="cls-6" d="M74.1,68.45H64.41a.36.36,0,0,1-.36-.36h0a.36.36,0,0,1,.36-.36H74.1a.36.36,0,0,1,.36.36h0A.36.36,0,0,1,74.1,68.45Z"/><path class="cls-6" d="M74.1,80.61H64.41a.36.36,0,0,1-.36-.36h0a.36.36,0,0,1,.36-.36H74.1a.36.36,0,0,1,.36.36h0A.36.36,0,0,1,74.1,80.61Z"/><path class="cls-6" d="M74.1,83.9H64.41a.36.36,0,0,1-.36-.36h0a.36.36,0,0,1,.36-.36H74.1a.36.36,0,0,1,.36.36h0A.36.36,0,0,1,74.1,83.9Z"/><path class="cls-6" d="M74.1,87.19H64.41a.36.36,0,0,1-.36-.36h0a.36.36,0,0,1,.36-.36H74.1a.36.36,0,0,1,.36.36h0A.36.36,0,0,1,74.1,87.19Z"/><rect class="cls-7" x="66.84" y="104.19" width="11.23" height="28.88" rx="2.28"/><rect class="cls-8" x="44.45" y="116.68" width="27.73" height="16.39" rx="2.28"/><rect class="cls-6" x="42.92" y="104.19" width="30.79" height="17.55" rx="1.97"/><path class="cls-7" d="M61.58,118.63H55.05a.63.63,0,0,0-.62.63v4.24a.62.62,0,0,0,.62.62h6.53a.62.62,0,0,0,.62-.62v-4.24A.63.63,0,0,0,61.58,118.63Zm-.34,4.52H55.39V119.6h5.85Z"/><path class="cls-8" d="M52.94,104.19V99.54H63.69v4.65h2V99.47a2,2,0,0,0-2-2H52.87a2,2,0,0,0-2,2v4.72Z"/><path class="cls-3" d="M64.57,112.4H52.06a1.5,1.5,0,0,1-1.5-1.5h0a1.5,1.5,0,0,1,1.5-1.5H64.57a1.5,1.5,0,0,1,1.5,1.5h0A1.5,1.5,0,0,1,64.57,112.4Z"/><rect class="cls-1" x="26.96" y="117.85" width="5.52" height="12.65"/><rect class="cls-2" x="27.2" y="130.5" width="5.04" height="0.62"/><rect class="cls-1" x="26.96" y="131.13" width="5.52" height="1.95"/><polygon class="cls-2" points="34.77 111.78 32.48 117.85 26.96 117.85 24.67 111.78 34.77 111.78"/><rect class="cls-2" x="28" y="121.74" width="0.76" height="4.44"/><rect class="cls-9" width="244.2" height="146.05"/></g></g></svg>