<svg xmlns="http://www.w3.org/2000/svg" viewBox="0 0 244.2 146.05"><defs><style>.cls-1{fill:#ffac38;}.cls-2{fill:#ff97a6;}.cls-3{fill:#f4e7d4;}.cls-4{fill:#aacce9;}.cls-5{fill:#8eb9dc;}.cls-6{fill:#fff;}.cls-7{fill:#c43b71;}.cls-8{fill:#357a5f;}.cls-9{fill:#295a6e;}.cls-10{fill:#970e32;}.cls-11{fill:#ad2452;}.cls-12{fill:#31193c;}.cls-13{fill:#3b2b5a;}.cls-14{fill:#ffcb49;}.cls-15{fill:#ff9a2e;}.cls-16{fill:#fa7089;}.cls-17{fill:none;}</style></defs><g id="Capa_2" data-name="Capa 2"><g id="Layer_1" data-name="Layer 1"><path class="cls-1" d="M191.78,66.15c-4.17-.62-7.66,9.17-6.47,22.1a57.08,57.08,0,0,1-13.66-3.48l-.55,1.51s8.76,7.51,18.29,8.52c3.71.4,4.45-5.87,5.27-11.25C196,75.08,195.34,66.68,191.78,66.15Z"/><rect class="cls-2" x="154.27" y="45.78" width="10.44" height="10.44" rx="1.43"/><rect class="cls-3" x="167.53" y="45.78" width="10.44" height="10.44" rx="1.43"/><rect class="cls-3" x="154.27" y="58.78" width="10.44" height="10.44" rx="1.43"/><rect class="cls-2" x="167.53" y="58.78" width="10.44" height="10.44" rx="1.43"/><path class="cls-3" d="M158.93,54.56h0a.38.38,0,0,1-.33-.2L156.26,50a.37.37,0,0,1,.15-.5.38.38,0,0,1,.51.15l2,3.73,3.12-5.78a.38.38,0,0,1,.5-.15.37.37,0,0,1,.15.5l-3.44,6.38A.38.38,0,0,1,158.93,54.56Z"/><path class="cls-3" d="M172.2,67.56h0a.36.36,0,0,1-.33-.19L169.53,63a.37.37,0,1,1,.65-.35l2,3.73,3.11-5.78A.38.38,0,0,1,176,61l-3.45,6.38A.36.36,0,0,1,172.2,67.56Z"/><polygon class="cls-4" points="175.59 76.47 179.49 89.76 170.7 89.76 166.81 76.47 175.59 76.47"/><polygon class="cls-5" points="176.19 76.47 180.08 89.76 179.49 89.76 175.59 76.47 176.19 76.47"/><path class="cls-6" d="M172.24,83.36c.12.78.57,1.41,1,1.41s.69-.63.57-1.41-.57-1.42-1-1.42S172.12,82.57,172.24,83.36Z"/><polygon class="cls-7" points="164.43 113.13 162.31 125.69 161.56 130.13 151.66 130.13 150.45 123.01 148.78 113.13 164.43 113.13"/><path class="cls-8" d="M162.75,113.13H152.12c-4.13-2.17-6.42-10.4-.28-10.4-5.86-5.41-2.75-9.62.92-8.62-6.51-3.11-2.57-12.19.92-8-1-2.41.47-3.89,2.39-4.38,2.64-.69,6.1.48,5.31,3.65,4.49-3.12,6.87,9.71,1.37,11.45,4.2-.36,3.49,4.5-.73,6.7C165.51,103,168.25,106.12,162.75,113.13Z"/><path class="cls-9" d="M157,113.13h-4.89c-4.13-2.17-6.42-10.4-.28-10.4-5.86-5.41-2.75-9.62.92-8.62-6.51-3.11-2.57-12.19.92-8-1-2.41.47-3.89,2.39-4.38C164.12,92.23,152.4,101.55,157,113.13Z"/><path class="cls-10" d="M162.31,125.69l-.75,4.44h-9.9L150.45,123a9.69,9.69,0,0,0,2.28,2A10.08,10.08,0,0,0,162.31,125.69Z"/><path class="cls-7" d="M227.38,63.52c-.69,7.34-1.87,18.5-3.59,29.91-.65,4.36-1.37,8.76-2.18,13a7,7,0,0,1-6,5.63,122.79,122.79,0,0,1-20.18,1.3c-2-.07-3.85-.22-5.7-.47a3,3,0,0,1-.18-5.92c2-.35,4-.62,6-.84,1-.1,2-.19,3-.26-.1-3.32-.11-7-.05-10.88a229.1,229.1,0,0,1,2.89-33.8,8.86,8.86,0,0,1,8.11-7.25,83.25,83.25,0,0,1,9.49-.15A8.87,8.87,0,0,1,227.38,63.52Z"/><path class="cls-11" d="M218.6,103.29c-3.12-18.83-.11-32.57,3.19-42.17a2,2,0,0,1,4,.57C226.49,75.66,222.82,95.59,218.6,103.29Z"/><path class="cls-11" d="M200.07,99.62a203.48,203.48,0,0,1,1.84-34.54,9.28,9.28,0,0,1,9.21-7.92H212A4.73,4.73,0,0,1,216.11,64a9.82,9.82,0,0,0-.81,8.28c2.47,7.25-3,12.29-1.2,15.87s-4.31,6.69-2.75,11.09S202.83,106.59,200.07,99.62Z"/><rect class="cls-12" x="202.96" y="123.37" width="3.9" height="5.69"/><rect class="cls-13" x="204.02" y="112.12" width="1.77" height="11.24"/><polygon class="cls-13" points="218.39 134.48 206.86 124.28 206.86 128.23 218.39 134.48"/><polygon class="cls-13" points="191.44 134.48 202.96 124.28 202.96 128.23 191.44 134.48"/><polygon class="cls-13" points="204.91 134.48 206.31 129.05 203.51 129.05 204.91 134.48"/><path class="cls-12" d="M206.86,134.48a1.95,1.95,0,1,1-2-1.95A1.95,1.95,0,0,1,206.86,134.48Z"/><path class="cls-12" d="M193.39,134.48a1.95,1.95,0,1,1-1.95-1.95A2,2,0,0,1,193.39,134.48Z"/><path class="cls-12" d="M220.33,134.48a1.95,1.95,0,1,1-1.94-1.95A1.94,1.94,0,0,1,220.33,134.48Z"/><path class="cls-14" d="M209.75,95.67l-18.28-1c-8.63-27-1.26-29.94,1.7-30.1h.3a4,4,0,0,1,.81.07l8.71-.24c.3,0,.59,0,.86,0a9.54,9.54,0,0,1,1.59.3C214.85,67.39,211.49,84.82,209.75,95.67Z"/><path class="cls-7" d="M205.44,64.74c-4.86.15-9,6.42-9.64,8.13a11.65,11.65,0,0,1-2.33-8.31,4,4,0,0,1,.81.07l8.71-.24c.3,0,.59,0,.86,0A9.54,9.54,0,0,1,205.44,64.74Z"/><path class="cls-12" d="M193.5,106.51H181.59s-7.76,7.68-10.56,21.39l-1.77,0s-.59-14,1.44-24.89a8.33,8.33,0,0,1,7.52-6.78c10.14-1.08,23.57.11,26.29.92v0A11.16,11.16,0,0,1,193.5,106.51Z"/><polygon class="cls-2" points="171.03 127.9 170.88 129.36 169.36 129.24 169.26 127.95 171.03 127.9"/><path class="cls-12" d="M170.88,129.36c.18,1.06.35,2.83.44,3.85a.78.78,0,0,1-.72.86,49.13,49.13,0,0,1-9.24-.16.53.53,0,0,1,0-1c4.13-.76,7.39-2.7,8-3.63Z"/><path class="cls-2" d="M187,50.51c.8,1.28,1.42,5.1,1.42,5.1l1.25-.52s.49,4.47,3.4,2.95c1.49,1.52,1.18,6.59,1.18,6.59a10.85,10.85,0,0,0,1.4,6.47A13.11,13.11,0,0,1,203,64.38c-2.29-2.15-4.27-7.45-4.27-7.45l-3.95-9.3Z"/><path class="cls-13" d="M199.29,105.35H185.92s-4,7.54-3.17,22.06l-1.77.52s-4.3-13.86-5.16-25.39a7.35,7.35,0,0,1,6.6-7.82c10.54-1.12,24.5.11,27.33,1,0,0-.08.48-.22,1.23A10.43,10.43,0,0,1,199.29,105.35Z"/><polygon class="cls-2" points="182.75 127.41 182.98 128.92 181.42 129.21 180.98 127.93 182.75 127.41"/><path class="cls-13" d="M183,128.92c.46,1,1.11,2.75,1.47,3.75a.83.83,0,0,1-.5,1.06,52.35,52.35,0,0,1-9.33,2.29.55.55,0,0,1-.31-1c4-1.86,6.72-4.68,7.11-5.77Z"/><path class="cls-15" d="M209.57,89c1.07-4.5,2.7-13.16,1.49-18.93-.78-3.74-6-4.32-7.41-.77a52.48,52.48,0,0,0-2.9,17.62,45.26,45.26,0,0,1-14.48-1.57l-.16,1.7s9.33,7.07,17.73,6.65A6.18,6.18,0,0,0,209.57,89Z"/><path class="cls-16" d="M186.27,85.33c-2-.66-3.1-2.43-4.41-2.8a24.22,24.22,0,0,1-3.27-1.31s-.35.06-.11.4,1.94.94,2.28,1.37-.32,1.71,1.45,2l.72-.46a10.69,10.69,0,0,0,3.18,2.5Z"/><path class="cls-13" d="M189.7,55.09c2.42-.86,2.56-2.37,2.19-3.52a6.35,6.35,0,0,0-1-1.93,9,9,0,0,0-4.46,1.65c-2.24,1.59-3.87-1.37-4-3.32s2.7-2.73,2.7-2.73-1.56-2,1.22-2.89,2.36,1.59,2.36,1.59,3.21-3.42,4.42-.1c1.49-2.84,5.39-.89,4.95,2.48s-.77,3.62.78,4.68.37,5-.09,5.93c-1.29-1.5-2-2.78-3.5-3.56a1.09,1.09,0,0,1-.55-1.31,1.56,1.56,0,0,0-1.75-2.1c.69,2.23,2,8.3-1.76,12-.09-2.23-1.7-5-1.86-6.72Z"/><polygon class="cls-2" points="189.93 56.5 191.26 55.88 191.32 56.61 190.13 57.13 189.93 56.5"/><path class="cls-2" d="M169.58,85.93c-2.16-1.46-3.82-3.64-1.46-5,1.07-.47,3.42,2.17.9,3Z"/><path class="cls-10" d="M223.79,93.43c-.65,4.36-1.37,8.76-2.18,13a7,7,0,0,1-6,5.63,122.79,122.79,0,0,1-20.18,1.3,60,60,0,0,1,.24-8.17,12.58,12.58,0,0,1,11.48-11.44A140.43,140.43,0,0,1,223.79,93.43Z"/><path class="cls-13" d="M189.73,51.88c.17.54.21,1,.08,1s-.36-.36-.53-.91-.21-1-.08-1.05S189.56,51.34,189.73,51.88Z"/><rect class="cls-17" width="244.2" height="146.05"/></g></g></svg>