<svg xmlns="http://www.w3.org/2000/svg" viewBox="0 0 244.2 146.05"><defs><style>.cls-1{fill:#c43b71;}.cls-2{fill:#3b2b5a;}.cls-3{fill:#f4e7d4;}.cls-4{fill:#31193c;}.cls-5{fill:#ff97a6;}.cls-6{fill:#ffcb49;}.cls-7{fill:none;}</style></defs><g id="Capa_2" data-name="Capa 2"><g id="Layer_1" data-name="Layer 1"><path class="cls-1" d="M60.21,52.91C56.14,46.71,49.66,43,42.9,43s-13.24,3.7-17.32,9.9l-.4-.26C29.35,46.31,36,42.53,42.9,42.53s13.55,3.78,17.71,10.12Z"/><circle class="cls-2" cx="73.91" cy="45.92" r="6.86" transform="translate(16.75 111.52) rotate(-80.78)"/><circle class="cls-3" cx="73.91" cy="45.92" r="6.03"/><circle class="cls-2" cx="73.91" cy="45.92" r="0.46"/><polygon class="cls-2" points="73.45 45.92 73.91 41.7 74.37 45.92 73.91 45.92 73.45 45.92"/><polygon class="cls-2" points="74.19 45.62 77.69 49.51 73.63 46.22 73.91 45.92 74.19 45.62"/><path class="cls-4" d="M47,65.1a45.17,45.17,0,0,1-1.92-14.76c.16-3.76,5.8-5.08,7.45-1.73a47,47,0,0,1,4.11,15,23.5,23.5,0,0,0,12-7.6L70,57.34S63.73,69.79,55,72.66C52.19,73.59,47.78,67.66,47,65.1Z"/><path class="cls-2" d="M49.17,76.44l-15.79,1C30.16,69.87,26.24,45.83,37,45.83c0,0,8.31-.06,10.16,0C51.19,45.8,58,49.92,49.17,76.44Z"/><path class="cls-5" d="M50.87,31.58C50.4,32.67,49.46,37,49.46,37l-1-.24s-.05,3.26-2.5,2.47c-1.26,1.67-.53,5.77-.53,5.77s1,1.8.53,5.31c-2.88-2.51-5.77-4.59-8.41-4.51,1.51-1.37,3.86-6.55,4.26-11.3L43,31.6,48.49,30Z"/><path class="cls-5" d="M32.24,128.82c.16-.83.34-1.68.53-2.47H30.38l-.78,2.47Z"/><path class="cls-2" d="M29.6,128.82c-2.5,2-6.37,3.3-9.21,4-.44.11-.41.75,0,.75h9.9a1.52,1.52,0,0,0,1.37-1.26c.13-.9.32-2.18.57-3.51Z"/><path class="cls-5" d="M48.46,128.82c.11-.83.2-1.68.26-2.47h2.39v2.47Z"/><path class="cls-4" d="M51.1,128.82c1.85,2,5.32,3.3,7.93,4a.39.39,0,0,1-.11.75H48.87a1,1,0,0,1-1-1.26c.16-.9.37-2.18.55-3.51Z"/><path class="cls-2" d="M46.56,35.24c-.48-3.74.16-4.2,1.72-3.94s3.68,1.54,5.93-1.83c4.3-6.45-3.81-5.7-6-3.71.41-3.27-4.4-1-4.55.42-2.52-3-5.51.58-4.63,2.7-5.45,3.16,2,6.1,2.09,9,1.06-1,2.42-1.57,3.27-2.28-1.17-.56-.56-3.21.59-3.12s.68,2.66.68,2.66Z"/><path class="cls-4" d="M49.17,76.44c6.89,16.17,4,30,1.94,49.91H48.72s.49-23.55-7-35.44c-5.13-3.64-6.4-9.34-4.21-13.73Z"/><path class="cls-2" d="M33.38,77.45a13.07,13.07,0,0,0-.93,11.93s-3.49,7.88-2.05,37h2.39c4.65-26.14,12-41.68,11.9-49.63Z"/><path class="cls-5" d="M68.65,56c2.4-3.75,7.2-.7,8.65-2.7.37-.51,1,0,.68.62-2.14,3.94-6.55.89-7.94,3.43Z"/><path class="cls-4" d="M21.85,58.05A45.65,45.65,0,0,1,32,47.15c3-2.28,7.62,1.22,6.09,4.63C35.68,57.1,30.57,62.63,24,67.15c0,0-2.55,13.42.35,20.45l-1.86.56s-6.15-13.61-4.38-22.63C18.68,62.62,20.38,60.29,21.85,58.05Z"/><rect class="cls-6" x="24.59" y="52.17" width="37.66" height="45.09"/><rect class="cls-3" x="28.33" y="55.99" width="6.69" height="8.53"/><rect class="cls-3" x="40.07" y="55.99" width="6.69" height="8.53"/><rect class="cls-3" x="51.81" y="55.99" width="6.69" height="8.53"/><rect class="cls-3" x="28.33" y="70.45" width="6.69" height="8.53"/><rect class="cls-3" x="40.07" y="70.45" width="6.69" height="8.53"/><rect class="cls-3" x="51.81" y="70.45" width="6.69" height="8.53"/><rect class="cls-3" x="28.33" y="84.91" width="6.69" height="8.53"/><rect class="cls-3" x="40.07" y="84.91" width="6.69" height="8.53"/><rect class="cls-3" x="51.81" y="84.91" width="6.69" height="8.53"/><path class="cls-1" d="M32.29,60.25l1.34-1.71a.48.48,0,1,0-.75-.59l-1.2,1.53L30.48,58a.47.47,0,0,0-.67-.08.48.48,0,0,0-.09.67l1.35,1.71L29.72,62a.48.48,0,0,0,.09.67.45.45,0,0,0,.29.1.49.49,0,0,0,.38-.18L31.68,61l1.2,1.53a.48.48,0,0,0,.38.18.47.47,0,0,0,.37-.77Z"/><path class="cls-1" d="M44,60.25l1.34-1.71a.48.48,0,0,0-.08-.67.47.47,0,0,0-.67.08l-1.2,1.53L42.22,58a.48.48,0,0,0-.68-.08.49.49,0,0,0-.08.67l1.35,1.71L41.46,62a.49.49,0,0,0,.08.67.47.47,0,0,0,.3.1.49.49,0,0,0,.38-.18L43.42,61l1.2,1.53a.46.46,0,0,0,.37.18.47.47,0,0,0,.38-.77Z"/><path class="cls-1" d="M44,74.71,45.37,73a.49.49,0,0,0-.08-.68.48.48,0,0,0-.67.09l-1.2,1.53-1.2-1.53a.49.49,0,0,0-.68-.09.5.5,0,0,0-.08.68l1.35,1.71-1.35,1.72a.49.49,0,0,0,.08.67.47.47,0,0,0,.3.1.49.49,0,0,0,.38-.18l1.2-1.53L44.62,77a.46.46,0,0,0,.37.18.47.47,0,0,0,.3-.1.48.48,0,0,0,.08-.67Z"/><path class="cls-1" d="M55.76,74.71,57.11,73a.5.5,0,0,0-.08-.68.49.49,0,0,0-.68.09l-1.2,1.53L54,72.41a.48.48,0,0,0-.67-.09.49.49,0,0,0-.08.68l1.34,1.71L53.2,76.43a.48.48,0,0,0,.08.67.47.47,0,0,0,.3.1A.46.46,0,0,0,54,77l1.2-1.53L56.35,77a.49.49,0,0,0,.68.08.49.49,0,0,0,.08-.67Z"/><path class="cls-5" d="M22.49,88.16a34.76,34.76,0,0,0,1.31,4.56A2.29,2.29,0,0,0,26.69,94l.28-.11a.72.72,0,0,0,.38-1c-.57-1.1-1.77-2.47-1.93-2.91a6.65,6.65,0,0,1,2.26.9c.59.54,1.21-.14-.59-1.27s-2.48-1.3-2.74-2Z"/><path class="cls-2" d="M48.54,33.5c-.16.54-.4,1-.53.91s-.09-.51.07-1,.41-1,.53-.92S48.71,33,48.54,33.5Z"/><rect class="cls-7" width="244.2" height="146.05"/></g></g></svg>