<svg xmlns="http://www.w3.org/2000/svg" viewBox="0 0 81.24 123.08"><defs><style>.cls-1{fill:#ff5e4c;}.cls-2{fill:#1f6864;}.cls-3{fill:#ffcb49;}.cls-4{fill:#ff9a2e;}.cls-5{fill:#357a5f;}.cls-6{fill:#295a6e;}.cls-7{fill:#f4e7d4;}.cls-8{fill:#3b2b5a;}.cls-9{fill:#71a3d5;}.cls-10{fill:#ff97a6;}.cls-11{fill:#31193c;}.cls-12{fill:#aacce9;}.cls-13{fill:#8eb9dc;}.cls-14{fill:#c43b71;}</style></defs><g id="Capa_2" data-name="Capa 2"><g id="Capa_1-2" data-name="Capa 1"><rect class="cls-1" x="33.9" width="39.2" height="56.96"/><path class="cls-2" d="M50.79,100.4C42,93.92,46.24,88.92,48.85,89.59c-6.61-3.34-5.11-9.07-2.15-8.6-6.34-4.75-5.19-14.5.93-10.07-.15-2.35,3.86-3,4.75,0,2-2,5.8,1.41,3.36,6.52,2.53-1.93,11.91,2.87,4.07,10.9,4.83-3.16,8.2,6.9,2.84,12.11Z"/><path class="cls-3" d="M72.14,111.45A15.17,15.17,0,0,1,69,120.84c-.3.37-.61.73-.93,1.07a3.11,3.11,0,0,1-2.25.92H54.59a3.11,3.11,0,0,1-2.25-.92,15,15,0,0,1-4.06-10.46,15.53,15.53,0,0,1,.64-4.47,14.4,14.4,0,0,1,1.32-3.18H70.18A15.66,15.66,0,0,1,72.14,111.45Z"/><path class="cls-4" d="M60.21,103.81h9.61a1.78,1.78,0,0,0,1.84-1.71h0a1.77,1.77,0,0,0-1.84-1.7H50.6a1.77,1.77,0,0,0-1.84,1.7h0a1.78,1.78,0,0,0,1.84,1.71Z"/><path class="cls-5" d="M68.73,100.39H54.3c-7.64-6.33-5.7-18.56.86-14.72-11.27-9.77-.9-15.61,2.6-13.26-4.07-6.22-.19-10.41,2.67-7.93.33-2.67,3.15-2.92,4.73-1.72a2.56,2.56,0,0,1,1.06,1.78c6.49-5.39,10,6.47,3.31,12.24,3.5-.56,6.56,6.41-.76,10.48C71.79,86.43,78.06,92.52,68.73,100.39Z"/><path class="cls-6" d="M68.73,100.39H59.48C70.79,83.78,55.07,85,61.07,75.33c3.76-6.06,4.37-10.06,4.09-12.57a2.56,2.56,0,0,1,1.06,1.78c6.49-5.39,10,6.47,3.31,12.24,3.5-.56,6.56,6.41-.76,10.48C71.79,86.43,78.06,92.52,68.73,100.39Z"/><path class="cls-4" d="M69,120.84c-.3.37-.61.73-.93,1.07a3.11,3.11,0,0,1-2.25.92H54.59a3.11,3.11,0,0,1-2.25-.92,15,15,0,0,1-4.06-10.46,15.53,15.53,0,0,1,.64-4.47A16.36,16.36,0,0,0,69,120.84Z"/><polygon class="cls-7" points="39.12 4.63 44.02 4.12 43.63 8.69 39.18 8.75 39.12 4.63"/><polygon class="cls-8" points="48.92 4.12 53.75 4.19 53.05 9.26 48.34 8.88 48.92 4.12"/><polygon class="cls-6" points="39.05 12.94 43.95 13.07 43.38 17.63 38.99 17.38 39.05 12.94"/><path class="cls-7" d="M58.59,11.35c.19,0,4.52-.38,4.52-.38l-.64,5.52H57.89Z"/><polygon class="cls-8" points="65.84 11.16 70.3 11.1 70.17 15.48 65.46 16.18 65.84 11.16"/><path class="cls-7" d="M65.52,22s3.12-.44,4.2-1.33l1.91,2.92a14,14,0,0,1-4.45,2.09Z"/><polygon class="cls-6" points="59.73 21.69 63.11 21.76 62.6 26.7 58.72 26.7 59.73 21.69"/><polygon class="cls-7" points="39.18 22.52 43.38 22.58 43.32 26.77 38.55 26.89 39.18 22.52"/><polygon class="cls-8" points="38.99 37.68 38.99 32.98 43.38 32.92 43.51 37.23 38.99 37.68"/><polygon class="cls-7" points="48.73 36.6 48.85 32.54 53.12 32.41 53.24 37.11 48.73 36.6"/><polygon class="cls-6" points="57.7 32.22 61.9 32.22 61.2 36.92 56.81 36.79 57.7 32.22"/><polygon class="cls-7" points="66.03 36.28 66.22 32.1 70.68 32.1 70.04 36.73 66.03 36.28"/><polygon class="cls-6" points="39.12 45.55 39.75 41.42 44.14 41.55 44.08 45.16 39.12 45.55"/><polygon class="cls-7" points="55.85 46.24 57 40.98 60.56 41.36 60.31 45.92 55.85 46.24"/><path class="cls-6" d="M63.42,51.25l2-3.87a7.58,7.58,0,0,0,4.51,4.06L66.54,54A9.05,9.05,0,0,1,63.42,51.25Z"/><path class="cls-8" d="M76.6,49.16c-.2-1.59,1.4-4.57,1.4-4.57l3.24,1.84a9.87,9.87,0,0,0-.7,5.52Z"/><path class="cls-8" d="M76,67c1-1.77,1.14-5.39,1.14-5.39l3.69,3.81s-2.29,2.73-2.29,4.82A7.67,7.67,0,0,0,76,67Z"/><path class="cls-8" d="M36.57,65l3.18-3.43a11.05,11.05,0,0,0,2.61,2.35s-2.61,2.79-2.86,5Z"/><path class="cls-8" d="M40.2,116.78a5.68,5.68,0,0,1,2.67-3.36l2.29,1.9s-2.1,2-2,3.49Z"/><path class="cls-8" d="M45.51,52.27a5.46,5.46,0,0,0,3.61-2.1s-2.51.07-3.61-1a9.3,9.3,0,0,1-6.16,2.13C41,52.62,43.62,53.25,45.51,52.27Z"/><path class="cls-9" d="M23.22,38.11a30.83,30.83,0,0,0-2.79-12.9,3.68,3.68,0,0,0-7,1.49A43.42,43.42,0,0,0,15,38.83c1,3.82,4,5.28,7.43,7.22a51.61,51.61,0,0,0,14.81,6l.64-2.13C31.6,47.78,25.8,39.54,23.22,38.11Z"/><path class="cls-10" d="M37.87,49.89c2.48,0,4.12,3.17,7.64,2.38-.44,1.54-3.37,1.95-5.13.91A8.47,8.47,0,0,0,37.23,52Z"/><path class="cls-10" d="M26.19,8.71c.77,5.12-.29,9.14-4,7.89-1.11,2.15,1.41,9.14,1.41,9.14l-8.48-1.25S15.43,7.05,26.19,8.71Z"/><path class="cls-10" d="M27.24,114.56H24.18s.56-19.45-4.6-36.79A64.55,64.55,0,0,0,16,68.36s-10.65-5.65-4-18.19c0,0,4.19-.79,12.8.68a59,59,0,0,1,7.91,25.08C34.18,91.37,30.26,105.82,27.24,114.56Z"/><path class="cls-10" d="M24.86,59C20.5,64.22,16.92,71.2,14,78.45a193.12,193.12,0,0,0-9.89,36.11H.84A197,197,0,0,1,2,77.64C3.57,66.27,6.54,55.42,12.06,50.17,12.06,50.17,21.23,54.24,24.86,59Z"/><path class="cls-9" d="M23.93,117.46c.11-1,.2-2,.25-2.91h3.06l.08,2.91Z"/><path class="cls-8" d="M27.32,117.46c2.43,2.39,6.9,3.89,10.27,4.73a.45.45,0,0,1-.12.89H24.61a1.28,1.28,0,0,1-1.27-1.48c.18-1.06.41-2.57.59-4.14Z"/><path class="cls-9" d="M.6,117.46c.11-1,.21-2,.26-2.91H3.92L4,117.46Z"/><path class="cls-11" d="M4,117.46c2.43,2.39,6.9,3.89,10.27,4.73a.45.45,0,0,1-.11.89H1.29A1.27,1.27,0,0,1,0,121.6c.17-1.06.4-2.57.58-4.14Z"/><path class="cls-12" d="M11.38,46.84a22.49,22.49,0,0,1,.67,3.34l6,.88,6.83-.21a10.76,10.76,0,0,1-.38-2c-.31-2.63-.1-7.29,4.5-10C35.63,35,33.07,23.14,16.14,22,3,21.19,9.13,38,11.38,46.84Z"/><path class="cls-13" d="M11.38,46.84a22.49,22.49,0,0,1,.67,3.34l6,.88,6.83-.21a10.76,10.76,0,0,1-.38-2C20.68,47.39,14.91,47,11.38,46.84Z"/><path class="cls-11" d="M24.86,59C20.5,64.22,16.92,71.2,14,78.45a25.2,25.2,0,0,1-12-.81C3.57,66.27,6.54,55.42,12.06,50.17,12.06,50.17,21.23,54.24,24.86,59Z"/><path class="cls-9" d="M36.76,36.67a34.53,34.53,0,0,0-9.43-11.28,4.08,4.08,0,0,0-6.11,5.05A48.28,48.28,0,0,0,29,41.61a8.13,8.13,0,0,0,11.12,1,57.58,57.58,0,0,0,12.58-12.5l-1.9-1.59C45.92,34,40,36.76,36.76,36.67Z"/><path class="cls-7" d="M56,25.07c.16-1.73,1-4,1.93-4.6a7.59,7.59,0,0,0-5,.87,12.7,12.7,0,0,1,0,3.88l-1.06,1.93,3.79-.8Z"/><path class="cls-10" d="M50.82,28.49c-.09-1.67,1-3.25,2.12-3.27-.43,1.27,1.48,1.57,3.09-.15,1.3,1-.72,4.05-3.31,5Z"/><path class="cls-14" d="M21.92,11.72c5.56-2.28,6.25-2.91,4.54-7.66s-10-6.16-13.54.33.84,7.08-5.52,12.15-8.16,7.52-6.65,13,14.76,5.23,18.3,2.36-3.41-7-2.17-13.08S20.91,12.14,21.92,11.72Z"/><path class="cls-8" d="M32.77,75.93c-3.19,1.87-8,2.51-13.19,1.84A64.55,64.55,0,0,0,16,68.36s-10.65-5.65-4-18.19c0,0,4.19-.79,12.8.68A59,59,0,0,1,32.77,75.93Z"/><rect class="cls-14" x="73.1" width="1.32" height="56.96" transform="translate(147.52 56.96) rotate(180)"/></g></g></svg>