<svg xmlns="http://www.w3.org/2000/svg" viewBox="0 0 244.2 146.05"><defs><style>.cls-1{fill:#6c55b2;}.cls-2{fill:#3b2b5a;}.cls-3{fill:#aacce9;}.cls-4{fill:#fff;}.cls-5{fill:#ffcb49;}.cls-6{fill:#1f6864;}.cls-7{fill:#357a5f;}.cls-8{fill:#ff97a6;}.cls-9{fill:#31193c;}.cls-10{fill:#295a6e;}.cls-11{fill:none;}</style></defs><g id="Capa_2" data-name="Capa 2"><g id="Layer_1" data-name="Layer 1"><ellipse class="cls-1" cx="173.95" cy="135.52" rx="9.14" ry="0.59"/><rect class="cls-2" x="165" y="35.53" width="14.35" height="73.85" rx="1.86"/><rect class="cls-1" x="168.69" y="35.53" width="14.35" height="73.85" rx="1.86"/><path class="cls-3" d="M181.17,108.39H170.55a.88.88,0,0,1-.62-.26.86.86,0,0,1-.26-.62V37.39a.89.89,0,0,1,.88-.88h10.62a.86.86,0,0,1,.62.26.88.88,0,0,1,.26.62v70.12a.89.89,0,0,1-.88.88Z"/><ellipse class="cls-4" cx="175.86" cy="68.1" rx="4.49" ry="15.08"/><path class="cls-1" d="M176.2,68.1v.78c0,.33-.15.6-.34.6s-.34-.27-.34-.6V67.32c0-.33.16-.6.34-.6s.34.27.34.6Z"/><rect class="cls-2" x="172.6" y="38.93" width="5.08" height="0.55" rx="0.27"/><path class="cls-2" d="M179.12,39.21a.28.28,0,1,1-.28-.28A.27.27,0,0,1,179.12,39.21Z"/><g id="Offset_Group" data-name="Offset Group"><path class="cls-5" d="M157,43.24a.41.41,0,0,1-.38-.25,9.09,9.09,0,0,1,1.1-9.53.43.43,0,0,1,.67.53,8.26,8.26,0,0,0-1,8.64.43.43,0,0,1-.2.57A.41.41,0,0,1,157,43.24Z"/><path class="cls-5" d="M159.2,42.18a.43.43,0,0,1-.39-.24,6.63,6.63,0,0,1-.59-3.59,6.54,6.54,0,0,1,1.4-3.35.42.42,0,0,1,.6-.07.44.44,0,0,1,.07.6,5.72,5.72,0,0,0-.7,6,.43.43,0,0,1-.21.57A.39.39,0,0,1,159.2,42.18Z"/></g><path class="cls-5" d="M161.43,41.13a.41.41,0,0,1-.38-.25,4.12,4.12,0,0,1,.5-4.35.43.43,0,0,1,.6-.06.42.42,0,0,1,.07.6,3.25,3.25,0,0,0-.4,3.45.43.43,0,0,1-.2.57A.58.58,0,0,1,161.43,41.13Z"/><g id="Offset_Group-2" data-name="Offset Group"><path class="cls-5" d="M190.93,43.24a.39.39,0,0,1-.18,0,.43.43,0,0,1-.21-.57,8.2,8.2,0,0,0-1-8.64.44.44,0,0,1,.07-.6.42.42,0,0,1,.6.07A9.06,9.06,0,0,1,191.32,43,.44.44,0,0,1,190.93,43.24Z"/><path class="cls-5" d="M188.7,42.18a.41.41,0,0,1-.19,0,.43.43,0,0,1-.2-.57,5.77,5.77,0,0,0-.7-6,.43.43,0,0,1,.67-.53,6.62,6.62,0,0,1,.8,6.94A.42.42,0,0,1,188.7,42.18Z"/></g><path class="cls-5" d="M186.46,41.13a.58.58,0,0,1-.18,0,.44.44,0,0,1-.21-.57,3.25,3.25,0,0,0-.4-3.45.43.43,0,0,1,.68-.54,4.12,4.12,0,0,1,.5,4.35A.42.42,0,0,1,186.46,41.13Z"/><path class="cls-1" d="M175.86,67.44a.21.21,0,0,1-.21-.21V57.8a.21.21,0,0,1,.21-.22.22.22,0,0,1,.22.22v9.43A.21.21,0,0,1,175.86,67.44Z"/><path class="cls-1" d="M174,75.83h0a.21.21,0,0,1-.15-.26l1.82-6.65a.21.21,0,0,1,.26-.15.22.22,0,0,1,.15.26l-1.82,6.65A.22.22,0,0,1,174,75.83Z"/><path class="cls-6" d="M210.24,70.11a44.2,44.2,0,0,0,1.86-14.33c-.16-3.64-5.63-4.93-7.23-1.67a45.08,45.08,0,0,0-4,14.54,22.87,22.87,0,0,1-11.66-7.38l-1.35,1.31S194,74.66,202.46,77.44C205.2,78.34,209.47,72.59,210.24,70.11Z"/><path class="cls-7" d="M223,81.34l-15.31-1c-8.22-24.82-2.42-29.42,1.54-29.72a3.1,3.1,0,0,1,.43,0c1.8,0,9.87,0,9.87,0a5.56,5.56,0,0,1,2.57.58C229.24,54.9,225.86,74.68,223,81.34Z"/><path class="cls-8" d="M187.87,62.58c-1.6-2.56-3.27-3.28-3.55-7.71a.8.8,0,0,1,.24-.61c.21-.2.41-.36.6-.51a.77.77,0,0,1,1.24.51,5.8,5.8,0,0,0,1.18,3.28c.29-2.13.86-3.28,1.44-3.16s.09.7-.44,2.34a5.09,5.09,0,0,0,.64,4.55C190.13,62.58,189.51,65.2,187.87,62.58Z"/><path class="cls-8" d="M198.66,60.5c-1-1.08-1.68-3.19-5.12-3.13s-2.8,3-2.08,3.47c1.79-.35,1.86-1.31,3.57-1.21S197.19,61.45,198,62Z"/><path class="cls-2" d="M197.39,62.09s1.27-2.53,1.27-2.53l-.8-.7-1.16,2.48Z"/><path class="cls-2" d="M197.86,58.86c-.45-.43-.33-.91.13-.72s2.46,1.9.67,1.42Z"/><path class="cls-8" d="M226.17,131.2c-.11-.81-.2-1.64-.26-2.4h-2.32v2.4Z"/><path class="cls-2" d="M223.6,131.2c-1.8,2-5.16,3.2-7.7,3.89a.38.38,0,0,0,.11.74h9.75a1,1,0,0,0,.94-1.22c-.16-.88-.36-2.12-.53-3.41Z"/><path class="cls-8" d="M208.39,131.2c-.1-.81-.19-1.64-.25-2.4h-2.32v2.4Z"/><path class="cls-9" d="M205.82,131.2c-1.79,2-5.15,3.2-7.69,3.89a.38.38,0,0,0,.11.74H208a1,1,0,0,0,.93-1.22c-.15-.88-.36-2.12-.53-3.41Z"/><path class="cls-9" d="M207.71,80.36c-6.7,15.69-3.89,29.11-1.89,48.44h2.32s-.48-22.85,6.79-34.39c5-3.54,6.22-9.07,4.09-13.33Z"/><path class="cls-2" d="M223,81.34a12.69,12.69,0,0,1,.91,11.58s-2.29,14.5,2,35.88h-2.32C210,101.51,212,88.35,212.05,80.64Z"/><path class="cls-1" d="M222.69,83.66l-5.45-.5s-.38,6.23,3.07,7.28S222.69,83.66,222.69,83.66Z"/><path class="cls-6" d="M222.12,51.24c-4.83-.57-9.94,4.49-11.05,6.13a9.81,9.81,0,0,1-1.82-6.73,3.1,3.1,0,0,1,.43,0c1.8,0,9.87,0,9.87,0A5.56,5.56,0,0,1,222.12,51.24Z"/><path class="cls-10" d="M218.61,74c2.44-3.65,5.43-11.41,6.64-16.19.9-3.54-3.38-6.37-6.05-3.91-3.33,3.07-5.16,5.79-7.07,13.73,0,0-6.47-1-13.47-7.12L198,62s6,10.83,14.25,14A5,5,0,0,0,218.61,74Z"/><path class="cls-8" d="M201,38.94a48.4,48.4,0,0,1,2.77,4.75l1-.54s1,3.28,3.26,1.77c1.76,1.32,2.23,5.69,2.23,5.69s-.55,2.13,1,5.55c2.18-3.39,5.93-4.87,8.63-5.55-1.93-1-7.24-7-9-11.71l-2.13-2.58-6,0Z"/><path class="cls-2" d="M206.15,41c-.6-3.93-1.38-4.21-2.9-3.49s-1.15,4.3-5.19,2.87-1.06-6.25,1.72-4.86c-1.36-3.2,2.32-4.34,2.9-2.9,1.68-3.78,7-1.78,6.75.63,5.85.32,4.28,9.85-1.47,7.32,1-.91.12-3.24-1-2.81s.09,2.89.09,2.89Z"/><path class="cls-2" d="M204.26,40c.28.49.42,1,.3,1s-.43-.28-.72-.77-.42-1-.31-1S204,39.52,204.26,40Z"/><rect class="cls-11" width="244.2" height="146.05"/></g></g></svg>