<svg xmlns="http://www.w3.org/2000/svg" viewBox="0 0 244.2 146.05"><defs><style>.cls-1{isolation:isolate;}.cls-2{fill:#3b2b5a;}.cls-3{fill:#31193c;}.cls-4{fill:#c43b71;}.cls-5{fill:#ff5e4c;}.cls-6{fill:#f4e7d4;}.cls-7,.cls-8{fill:#ff97a6;}.cls-8{opacity:0.3;mix-blend-mode:multiply;}.cls-9{fill:#aacce9;}.cls-10{fill:none;}</style></defs><g class="cls-1"><g id="Capa_2" data-name="Capa 2"><g id="Layer_1" data-name="Layer 1"><path class="cls-2" d="M151.62,123.86a2.25,2.25,0,0,1,3.76,0Z"/><polygon class="cls-2" points="160.88 113.93 167.76 109.48 162.57 117.07 158.12 119.95 153.91 124.15 153.61 123.6 153.31 123.05 157.52 118.84 160.88 113.93"/><polygon class="cls-2" points="144.07 116.56 137.73 109.73 144.93 114.72 149.04 119.15 153.76 123.28 153.61 123.6 153.46 123.92 148.73 119.79 144.07 116.56"/><polygon class="cls-3" points="189.34 126.72 177.91 129.14 177.91 125.42 189.34 124.91 189.34 126.72"/><path class="cls-2" d="M193.93,35.4h-4a.58.58,0,0,0-.53.41l-2.14,7.74a.3.3,0,0,0,.29.42h4a.6.6,0,0,0,.53-.42l2.14-7.74A.3.3,0,0,0,193.93,35.4Z"/><polygon class="cls-2" points="187.12 49.26 190.17 49.26 166.18 135.73 163.12 135.73 187.12 49.26"/><polygon class="cls-3" points="203.22 49.26 200.16 49.26 216.91 135.73 219.97 135.73 203.22 49.26"/><polygon class="cls-3" points="180.14 49.26 177.09 49.26 193.84 135.73 196.89 135.73 180.14 49.26"/><path class="cls-4" d="M208.3,39.26H178.2a4.4,4.4,0,0,0-4,3.1L158,101a2.28,2.28,0,0,0,2.24,3.11h30.1a4.4,4.4,0,0,0,4-3.11l16.22-58.59A2.28,2.28,0,0,0,208.3,39.26Z"/><path class="cls-5" d="M207,39.26H176.89a4.39,4.39,0,0,0-4,3.1L156.7,101a2.29,2.29,0,0,0,2.25,3.11h30.1a4.38,4.38,0,0,0,4-3.11l16.23-58.59A2.28,2.28,0,0,0,207,39.26Z"/><path class="cls-6" d="M180.42,52.71h-4a1,1,0,0,1-1-1.42l1.13-4a2,2,0,0,1,1.83-1.43h4a1,1,0,0,1,1,1.43l-1.13,4A2,2,0,0,1,180.42,52.71Z"/><path class="cls-4" d="M178.34,51.62h0a.17.17,0,0,1-.18-.13l-.75-2.87a.31.31,0,0,1,.19-.33.21.21,0,0,1,.31.1l.64,2.47L181.68,47a.3.3,0,0,1,.36-.1.23.23,0,0,1,0,.34l-3.46,4.22A.34.34,0,0,1,178.34,51.62Z"/><path class="cls-6" d="M201.6,49.88H185.23a.45.45,0,0,1-.44-.62h0a.88.88,0,0,1,.79-.62H202a.45.45,0,0,1,.44.62h0A.88.88,0,0,1,201.6,49.88Z"/><path class="cls-6" d="M177.3,63.91h-4.05a1,1,0,0,1-1-1.43l1.13-4A2,2,0,0,1,175.18,57h4a1,1,0,0,1,1,1.42l-1.13,4A2,2,0,0,1,177.3,63.91Z"/><path class="cls-4" d="M175.22,62.82h0a.17.17,0,0,1-.18-.13l-.75-2.87a.31.31,0,0,1,.19-.33c.14-.07.27,0,.3.09l.65,2.47,3.13-3.82a.3.3,0,0,1,.36-.1.22.22,0,0,1,0,.33l-3.46,4.23A.34.34,0,0,1,175.22,62.82Z"/><path class="cls-6" d="M198.48,61.08H182.11a.46.46,0,0,1-.45-.62h0a.9.9,0,0,1,.8-.62h16.36a.46.46,0,0,1,.45.62h0A.88.88,0,0,1,198.48,61.08Z"/><path class="cls-6" d="M174.18,75.11h-4.05a1,1,0,0,1-1-1.43l1.13-4.05a2,2,0,0,1,1.83-1.43h4.05a1.05,1.05,0,0,1,1,1.43L176,73.68A2,2,0,0,1,174.18,75.11Z"/><path class="cls-6" d="M195.36,72.28H179a.46.46,0,0,1-.45-.62h0a.89.89,0,0,1,.79-.62H195.7a.46.46,0,0,1,.45.62h0A.89.89,0,0,1,195.36,72.28Z"/><path class="cls-6" d="M171.06,86.31H167a1,1,0,0,1-1-1.43l1.13-4a2,2,0,0,1,1.82-1.43h4a1,1,0,0,1,1,1.43l-1.12,4A2,2,0,0,1,171.06,86.31Z"/><path class="cls-6" d="M192.24,83.48H175.87a.46.46,0,0,1-.45-.62h0a.89.89,0,0,1,.79-.62h16.37a.46.46,0,0,1,.45.62h0A.89.89,0,0,1,192.24,83.48Z"/><path class="cls-6" d="M167.94,97.51h-4.05a1,1,0,0,1-1-1.43L164,92a2,2,0,0,1,1.83-1.43h4.05a1,1,0,0,1,1,1.43l-1.13,4A2,2,0,0,1,167.94,97.51Z"/><path class="cls-6" d="M189.11,94.67H172.75a.46.46,0,0,1-.45-.62h0a.87.87,0,0,1,.79-.61h16.37a.45.45,0,0,1,.45.61h0A.9.9,0,0,1,189.11,94.67Z"/><rect class="cls-7" x="124.03" y="123.86" width="58.94" height="11.87" rx="1.6"/><path class="cls-8" d="M183,131.09v3a1.6,1.6,0,0,1-1.6,1.6H125.63a1.6,1.6,0,0,1-1.6-1.6v-2.35c6.38,2.72,14.08,1.52,20.81-2,8-4.16,17.29-2.65,22,.9C170.5,133.41,179,134.18,183,131.09Z"/><path class="cls-4" d="M123.06,124.29a.92.92,0,0,0-1.08-.92,6.7,6.7,0,0,0,0,12.86.92.92,0,0,0,1.08-.92Z"/><path class="cls-4" d="M133.73,124.07a2.44,2.44,0,0,0-2.37-.62,6.74,6.74,0,0,0,0,12.7,2.44,2.44,0,0,0,2.37-.62,8.14,8.14,0,0,0,0-11.46Z"/><polygon class="cls-3" points="191.41 131.61 179.97 132.56 179.97 128.84 191.41 129.8 191.41 131.61"/><path class="cls-9" d="M139,68.24c-2.4-.58-7.36,11.4-11.07,26.76s-4.76,28.28-2.35,28.86,7.37-11.4,11.07-26.76S141.36,68.82,139,68.24Zm-6.33,27.9c-.32,1.33-.75,2.36-1,2.31s-.11-1.16.21-2.49.74-2.36.95-2.31S132.94,94.82,132.62,96.14Z"/><path class="cls-2" d="M152.09,114.29a.27.27,0,0,1-.17-.06,3.85,3.85,0,0,1-1.2-2.06h-.17a3.21,3.21,0,0,1-3.08-1.87,3.5,3.5,0,0,1,.06-3.06,6.77,6.77,0,0,1-2.42-2,3,3,0,0,1-.54-3.08,1.78,1.78,0,0,1-1.38-1.09,3.29,3.29,0,0,1,1-3,7.89,7.89,0,0,1,7.09-2.2.24.24,0,0,1,.2.27.26.26,0,0,1-.28.2,7.37,7.37,0,0,0-6.65,2,2.89,2.89,0,0,0-.92,2.51c.12.42.67.65,1.12.77a.43.43,0,0,0,0-.07,7.87,7.87,0,0,1,6.5-3.41,1.48,1.48,0,0,1,1.42,1,1.45,1.45,0,0,1-.44,1.47c-1.3,1.34-5,2-7.25,1.55a2.56,2.56,0,0,0,.45,2.67,6.2,6.2,0,0,0,2.26,1.86q.17-.25.36-.51c1.24-1.57,3.47-2.66,4.86-2.39a1.26,1.26,0,0,1,1,.9c.27.92-.29,1.86-1.46,2.45a5.69,5.69,0,0,1-4.58.16,3,3,0,0,0-.07,2.67,2.78,2.78,0,0,0,2.66,1.59h.11a2.53,2.53,0,0,1,.1-.82,2.28,2.28,0,0,1,1.57-1.66,1.28,1.28,0,0,1,1.3.47.93.93,0,0,1,.14,1,3.39,3.39,0,0,1-2.59,1.41,3.39,3.39,0,0,0,1.06,1.75.24.24,0,0,1,0,.34A.23.23,0,0,1,152.09,114.29Zm.54-4.63-.19,0a1.81,1.81,0,0,0-1.21,1.32,2.33,2.33,0,0,0-.09.66,3,3,0,0,0,2.21-1.14.46.46,0,0,0-.07-.53A.83.83,0,0,0,152.63,109.66ZM148.2,107a5.39,5.39,0,0,0,4.14-.16c.94-.49,1.41-1.21,1.21-1.9a.78.78,0,0,0-.67-.56c-1.08-.21-3.18.69-4.39,2.22A3.17,3.17,0,0,0,148.2,107Zm-2.94-5.17c2.08.33,5.52-.24,6.69-1.44a1,1,0,0,0,.32-1c-.11-.38-.45-.6-1-.67A7.53,7.53,0,0,0,145.26,101.84Z"/><rect class="cls-10" width="244.2" height="146.05"/></g></g></g></svg>