<svg xmlns="http://www.w3.org/2000/svg" viewBox="0 0 244.2 146.05"><defs><style>.cls-1{fill:#c43b71;}.cls-2{fill:#970e32;}.cls-3{fill:#aacce9;}.cls-4{fill:#8eb9dc;}.cls-5{fill:#ff9a2e;}.cls-6{fill:#ffcb49;}.cls-7{fill:#31193c;}.cls-8{fill:#ff97a6;}.cls-9{fill:#f4e7d4;}.cls-10{fill:#fa7089;}.cls-11{fill:#6c55b2;}.cls-12{fill:#3b2b5a;}.cls-13{fill:#71a3d5;}.cls-14{fill:none;}</style></defs><g id="Capa_2" data-name="Capa 2"><g id="Layer_1" data-name="Layer 1"><path class="cls-1" d="M71.44,112.17C68,124.14,38.2,131,26,119.48A26,26,0,0,1,19.18,107C14.31,88.45,23,61.91,39.36,63.47A22.12,22.12,0,0,1,50.44,67.3l.1.07C55,70.69,57,76,54.82,83.27c-2.28,7.59,6.43,12.36,12.21,17.9a16.54,16.54,0,0,1,4.13,5.51A8,8,0,0,1,71.44,112.17Z"/><path class="cls-2" d="M44.76,107.83c-17.26,1-18-5.4-15.88-14.72s-6.24-14.93,1.69-22.76c7-6.95,14.8-6.51,19.87-3l.1.07C55,70.69,57,76,54.82,83.27c-2.28,7.59,6.43,12.36,12.21,17.9C67.8,107.13,59.41,107,44.76,107.83Z"/><path class="cls-2" d="M71.44,112.17C68,124.14,38.2,131,26,119.48A26,26,0,0,1,19.18,107c2.44,5.81,6.21,2.65,8.86,3.78,6.11,2.62,3.41,12.47,22.94,10.08,12-1.45,19.73-7.34,20.18-14.22A8,8,0,0,1,71.44,112.17Z"/><path class="cls-3" d="M65.92,117.67c2,0,3.78.76,4.45,1.94,2.87,5,12.7,8.73,24.62,8.9,1.42,0,2.57-5.32,2.57-11.89S96.41,104.74,95,104.74c-10.16.14-18.81,2.88-22.91,6.77a9.25,9.25,0,0,0-1.71,2.13c-.68,1.17-2.49,1.94-4.45,1.94Z"/><path class="cls-4" d="M72.44,119.64a12.43,12.43,0,0,0,3.39,2.77c4.22,2.48,10.9,4.22,18.66,4.4a2.93,2.93,0,0,0,.13-.29,25.06,25.06,0,0,0,1.19-7.31A108.85,108.85,0,0,0,72.44,119.64Z"/><path class="cls-5" d="M56.67,93.11l-3.07,7.68-12.17,6.46s-9.36-28.53,2.7-31.15a9.33,9.33,0,0,1,1.64-.19l7.73.32a3.38,3.38,0,0,1,.45,0C57.57,76.34,61.15,80.51,56.67,93.11Z"/><path class="cls-3" d="M70.74,97.72H53.38L57,84.56a1.4,1.4,0,0,1,1.35-1h15a1,1,0,0,1,1,1.29Z"/><path class="cls-6" d="M53.39,81.8c-1.31.53-2-.32-2.27-1.37A5,5,0,0,0,48.26,77a7.55,7.55,0,0,0-4.13-.27V76.1a9.33,9.33,0,0,1,1.64-.19l7.73.32a3.38,3.38,0,0,1,.45,0C54.46,78.38,54.64,81.29,53.39,81.8Z"/><path class="cls-7" d="M52.35,104.16C59.38,93,69,88.89,74.74,91.66c5.06,2.45,4.26,22.34,2.35,33H74.81s.25-16.87-3-22c-2.67,5.14-15.57,11.15-19.07,7.93C50.17,108.2,51,106.23,52.35,104.16Z"/><polygon class="cls-8" points="74.81 124.69 74.69 126.45 76.85 126.72 77.09 124.69 74.81 124.69"/><path class="cls-7" d="M74.69,126.45a28.34,28.34,0,0,1-1.51,3,.85.85,0,0,0,.49,1.21,85.24,85.24,0,0,1,9.6,3.95.63.63,0,0,0,.69-1c-2.49-2.36-5.17-4.53-7.11-6.81Z"/><rect class="cls-3" x="54.36" y="33.51" width="9.04" height="9.04" rx="1.43"/><rect class="cls-9" x="66.34" y="33.51" width="27.12" height="9.04" rx="1.43"/><rect class="cls-3" x="54.36" y="45.18" width="9.04" height="9.04" rx="1.43"/><rect class="cls-9" x="66.34" y="45.18" width="27.12" height="9.04" rx="1.43"/><path class="cls-5" d="M86.5,72.2A6.17,6.17,0,1,1,80.34,66,6.16,6.16,0,0,1,86.5,72.2Z"/><path class="cls-1" d="M81,72.2a.66.66,0,1,1-1.31,0,.66.66,0,1,1,1.31,0Z"/><circle class="cls-4" cx="24.04" cy="40.38" r="3.57"/><path class="cls-3" d="M47.83,39.25a1.14,1.14,0,1,1-1.13-1.14A1.14,1.14,0,0,1,47.83,39.25Z"/><path class="cls-10" d="M52,92.69c1.68-.89,2.12-2,4.16-1.82s.12,1.93-.57,2.2-3,1.69-3,1.69Z"/><path class="cls-4" d="M23.67,42.72h0a.23.23,0,0,1-.21-.13l-1.54-2.85a.24.24,0,0,1,.1-.33.24.24,0,0,1,.33.1L23.67,42l2.06-3.8a.24.24,0,0,1,.33-.1.25.25,0,0,1,.1.33l-2.27,4.2A.25.25,0,0,1,23.67,42.72Z"/><path class="cls-3" d="M83.48,85.12a.65.65,0,0,1,.9.3.69.69,0,0,1-1.25.59A.64.64,0,0,1,83.48,85.12Zm1.44-.68,6.22-3.19.78,1.68-6.44,2.71Z"/><path class="cls-11" d="M91,36.82H68.83a.33.33,0,0,1-.33-.33h0a.34.34,0,0,1,.33-.34H91a.34.34,0,0,1,.34.34h0A.34.34,0,0,1,91,36.82Z"/><path class="cls-11" d="M91,39.9H68.83a.34.34,0,0,1-.33-.34h0a.33.33,0,0,1,.33-.33H91a.34.34,0,0,1,.34.33h0A.34.34,0,0,1,91,39.9Z"/><path class="cls-11" d="M91,48.5H68.83a.34.34,0,0,1-.33-.34h0a.33.33,0,0,1,.33-.33H91a.34.34,0,0,1,.34.33h0A.34.34,0,0,1,91,48.5Z"/><path class="cls-11" d="M91,51.58H68.83a.34.34,0,0,1-.33-.34h0a.33.33,0,0,1,.33-.33H91a.34.34,0,0,1,.34.33h0A.34.34,0,0,1,91,51.58Z"/><rect class="cls-6" x="30.77" y="45.59" width="13.5" height="9.41" transform="translate(-23.77 36.86) rotate(-40.91)"/><polygon class="cls-5" points="29.34 51.16 37.52 50.29 39.53 42.32 29.34 51.16"/><path class="cls-8" d="M60.33,66.64C58.69,70,55.24,74.74,53,71.52c-1.16,2-1,3,.48,4.71a11.16,11.16,0,0,1,.19,4.41,1,1,0,0,1-2,.06c-.58-2.55-2.35-5-5.95-4.58-.16-4.18,1.75-11.59,6.93-12.86S60.17,65,60.33,66.64Z"/><path class="cls-6" d="M42.8,76.17c3.94,0,3,13-1.69,19.06C44.92,96.55,52,92.69,52,92.69l.58,2.07s-9.8,10.11-14.93,8S33.12,76.12,42.8,76.17Z"/><path class="cls-12" d="M56.41,64.58c2.49,4,7.25,3.12,8.42.32s-.27-7.36-6.25-6.88c0,0-.74-2.81-5.77-2.07s-3.44,4.87-3.44,4.87-4.82-2.12-7.84,1.06-.15,6.94,0,7.2c-2.85.16-7.46,7-3.07,10.11s13.87-6.46,12.87-12.65C53.29,67.76,56.2,66.12,56.41,64.58Z"/><path class="cls-12" d="M42.88,104.15c8-11.52,18.27-15.8,24-12.94,5.09,2.54,3,23.12.3,34.19H64.8s1.35-17.46-1.67-22.81C60,107.91,46.3,114.13,42.88,110.8,40.37,108.33,41.4,106.3,42.88,104.15Z"/><polygon class="cls-8" points="64.8 125.4 64.56 127.22 66.78 127.5 67.16 125.4 64.8 125.4"/><path class="cls-12" d="M64.56,127.22a30.54,30.54,0,0,1-1.75,3.07.84.84,0,0,0,.43,1.25,84,84,0,0,1,9.68,4.08.67.67,0,0,0,.78-1.07,92.48,92.48,0,0,1-6.91-7.05Z"/><path class="cls-3" d="M65.08,115.53a6.66,6.66,0,0,1-1.87-.48,3.58,3.58,0,0,1-1.74-1.41c-1.89-3.32-6.86-6.07-13.47-7.6a52.4,52.4,0,0,0-11.15-1.3v23.77c11.72-.17,21.45-3.8,24.48-8.67.05-.08.1-.15.14-.23a4.69,4.69,0,0,1,3.64-1.9Z"/><path class="cls-13" d="M39.43,116.62c0,6.57-1.15,11.89-2.57,11.89s-2.57-5.32-2.57-11.89,1.15-11.88,2.57-11.88S39.43,110.06,39.43,116.62Z"/><path class="cls-4" d="M40.64,117.37a36,36,0,0,1-1.14,9.35c6.67-.42,12.4-2,16.22-4.15a11.58,11.58,0,0,0,4.19-3.65l0-.07,0-.08a4.78,4.78,0,0,1,.79-1A65.34,65.34,0,0,0,40.64,117.37Z"/><path class="cls-3" d="M38.23,117.31a3.82,3.82,0,0,0-2.74.06,29.51,29.51,0,0,0,1.29,9.34,1.59,1.59,0,0,0,.08.18,1.59,1.59,0,0,0,.08-.18A29.85,29.85,0,0,0,38.23,117.31Z"/><path class="cls-12" d="M56.76,68c-.35.45-.72.74-.82.66s.09-.51.44-1,.71-.75.82-.66S57.1,67.54,56.76,68Z"/><rect class="cls-14" width="244.2" height="146.05"/></g></g></svg>