<svg xmlns="http://www.w3.org/2000/svg" viewBox="0 0 244.2 146.05"><defs><style>.cls-1{fill:#71a3d5;}.cls-2{fill:#aacce9;}.cls-3{fill:#31193c;}.cls-4{fill:#6c55b2;}.cls-5{fill:#f4e7d4;}.cls-6{fill:#ffcb49;}.cls-7{fill:#fff;}.cls-8{fill:#c43b71;}.cls-9{fill:#ff97a6;}.cls-10{fill:#8eb9dc;}.cls-11{fill:#3b2b5a;}.cls-12{fill:#ff5e4c;}.cls-13{fill:none;}</style></defs><g id="Capa_2" data-name="Capa 2"><g id="Layer_1" data-name="Layer 1"><circle class="cls-1" cx="178.17" cy="31.43" r="12.85" transform="translate(118.6 202.26) rotate(-80.78)"/><circle class="cls-2" cx="178.17" cy="31.43" r="11.29"/><path class="cls-1" d="M179,31.43a.87.87,0,1,1-.86-.86A.86.86,0,0,1,179,31.43Z"/><polygon class="cls-1" points="177.3 31.43 178.17 23.52 179.03 31.43 178.17 31.43 177.3 31.43"/><polygon class="cls-1" points="178.72 30.85 185.26 38.16 177.61 32.01 178.17 31.43 178.72 30.85"/><polygon class="cls-3" points="180.37 49.33 137.84 49.39 132.61 135.26 175.14 135.2 180.37 49.33"/><polygon class="cls-4" points="180.36 49.33 137.84 49.39 149.03 135.26 191.55 135.2 180.36 49.33"/><path class="cls-5" d="M176.48,51.87l-34.1.05a1.35,1.35,0,0,0-1.4,1.56l10.12,77.68a1.86,1.86,0,0,0,1.81,1.56l34.1,0a1.37,1.37,0,0,0,1.4-1.57L178.29,53.43A1.87,1.87,0,0,0,176.48,51.87Z"/><polygon class="cls-6" points="176.15 54.1 143.29 54.15 143.57 56.26 176.42 56.21 176.15 54.1"/><polygon class="cls-7" points="147.33 61.41 144.24 61.42 144.96 66.94 148.05 66.93 147.33 61.41"/><polygon class="cls-7" points="152.29 61.41 149.2 61.41 149.92 66.93 153.01 66.92 152.29 61.41"/><polygon class="cls-7" points="157.25 61.4 154.16 61.4 154.88 66.92 157.97 66.92 157.25 61.4"/><polygon class="cls-7" points="162.21 61.39 159.12 61.4 159.84 66.92 162.93 66.91 162.21 61.39"/><polygon class="cls-7" points="167.17 61.39 164.08 61.39 164.8 66.91 167.89 66.91 167.17 61.39"/><polygon class="cls-7" points="172.13 61.38 169.04 61.38 169.76 66.9 172.85 66.9 172.13 61.38"/><polygon class="cls-7" points="177.09 61.37 174 61.38 174.72 66.9 177.81 66.89 177.09 61.37"/><polygon class="cls-7" points="148.33 69.1 145.24 69.11 145.96 74.63 149.05 74.62 148.33 69.1"/><polygon class="cls-7" points="153.29 69.1 150.2 69.1 150.92 74.62 154.01 74.62 153.29 69.1"/><polygon class="cls-7" points="158.25 69.09 155.16 69.09 155.88 74.61 158.97 74.61 158.25 69.09"/><polygon class="cls-7" points="163.21 69.08 160.12 69.09 160.84 74.61 163.93 74.6 163.21 69.08"/><polygon class="cls-7" points="168.18 69.08 165.08 69.08 165.8 74.6 168.89 74.6 168.18 69.08"/><polygon class="cls-7" points="173.13 69.07 170.04 69.08 170.76 74.59 173.85 74.59 173.13 69.07"/><polygon class="cls-7" points="178.1 69.06 175 69.07 175.72 74.59 178.81 74.58 178.1 69.06"/><polygon class="cls-7" points="149.34 76.8 146.24 76.8 146.96 82.32 150.05 82.31 149.34 76.8"/><polygon class="cls-7" points="154.29 76.79 151.2 76.79 151.92 82.31 155.01 82.31 154.29 76.79"/><polygon class="cls-7" points="159.26 76.78 156.16 76.79 156.88 82.3 159.97 82.3 159.26 76.78"/><polygon class="cls-7" points="164.22 76.78 161.13 76.78 161.84 82.3 164.94 82.29 164.22 76.78"/><polygon class="cls-7" points="169.18 76.77 166.09 76.77 166.81 82.29 169.9 82.29 169.18 76.77"/><polygon class="cls-7" points="174.14 76.76 171.05 76.77 171.77 82.28 174.86 82.28 174.14 76.76"/><polygon class="cls-7" points="179.1 76.75 176.01 76.76 176.73 82.28 179.82 82.27 179.1 76.75"/><polygon class="cls-8" points="146.94 58.43 143.85 58.43 143.96 59.24 147.05 59.24 146.94 58.43"/><polygon class="cls-8" points="151.9 58.42 148.81 58.42 148.92 59.24 152.01 59.23 151.9 58.42"/><polygon class="cls-8" points="156.86 58.41 153.77 58.42 153.88 59.23 156.97 59.23 156.86 58.41"/><polygon class="cls-8" points="161.82 58.41 158.73 58.41 158.84 59.23 161.93 59.22 161.82 58.41"/><polygon class="cls-8" points="166.78 58.4 163.69 58.4 163.8 59.22 166.89 59.21 166.78 58.4"/><polygon class="cls-8" points="171.74 58.39 168.65 58.4 168.76 59.21 171.85 59.21 171.74 58.39"/><polygon class="cls-8" points="176.7 58.39 173.61 58.39 173.72 59.2 176.81 59.2 176.7 58.39"/><polygon class="cls-6" points="180.54 87.86 147.69 87.9 147.97 90.01 180.82 89.97 180.54 87.86"/><polygon class="cls-6" points="184.71 119.86 151.86 119.9 153.27 130.7 186.12 130.66 184.71 119.86"/><polygon class="cls-7" points="151.73 95.17 148.64 95.17 149.36 100.69 152.45 100.68 151.73 95.17"/><polygon class="cls-7" points="156.69 95.16 153.6 95.16 154.32 100.68 157.41 100.68 156.69 95.16"/><polygon class="cls-7" points="161.65 95.15 158.56 95.16 159.28 100.67 162.37 100.67 161.65 95.15"/><polygon class="cls-7" points="166.61 95.15 163.52 95.15 164.24 100.67 167.33 100.66 166.61 95.15"/><polygon class="cls-7" points="171.57 95.14 168.48 95.14 169.2 100.66 172.29 100.66 171.57 95.14"/><polygon class="cls-7" points="176.53 95.13 173.44 95.14 174.16 100.66 177.25 100.65 176.53 95.13"/><polygon class="cls-7" points="181.49 95.13 178.4 95.13 179.12 100.65 182.21 100.64 181.49 95.13"/><polygon class="cls-7" points="152.73 102.86 149.64 102.86 150.36 108.38 153.45 108.38 152.73 102.86"/><polygon class="cls-7" points="157.69 102.85 154.6 102.85 155.32 108.37 158.41 108.37 157.69 102.85"/><polygon class="cls-7" points="162.65 102.84 159.56 102.85 160.28 108.37 163.37 108.36 162.65 102.84"/><polygon class="cls-7" points="167.61 102.84 164.52 102.84 165.24 108.36 168.33 108.36 167.61 102.84"/><polygon class="cls-7" points="172.57 102.83 169.48 102.83 170.2 108.35 173.29 108.35 172.57 102.83"/><polygon class="cls-7" points="177.53 102.82 174.44 102.83 175.16 108.35 178.25 108.34 177.53 102.82"/><polygon class="cls-7" points="182.49 102.82 179.4 102.82 180.12 108.34 183.21 108.33 182.49 102.82"/><polygon class="cls-7" points="153.73 110.55 150.64 110.55 151.36 116.07 154.45 116.07 153.73 110.55"/><polygon class="cls-7" points="158.69 110.54 155.6 110.55 156.32 116.06 159.41 116.06 158.69 110.54"/><polygon class="cls-7" points="163.65 110.53 160.56 110.54 161.28 116.06 164.37 116.05 163.65 110.53"/><polygon class="cls-7" points="168.61 110.53 165.52 110.53 166.24 116.05 169.33 116.05 168.61 110.53"/><polygon class="cls-7" points="173.57 110.52 170.48 110.53 171.2 116.04 174.29 116.04 173.57 110.52"/><polygon class="cls-7" points="178.53 110.51 175.44 110.52 176.16 116.04 179.25 116.03 178.53 110.51"/><polygon class="cls-7" points="183.5 110.51 180.41 110.51 181.12 116.03 184.22 116.03 183.5 110.51"/><polygon class="cls-8" points="151.34 92.18 148.25 92.18 148.35 93 151.44 92.99 151.34 92.18"/><polygon class="cls-8" points="156.3 92.17 153.21 92.18 153.31 92.99 156.41 92.99 156.3 92.17"/><polygon class="cls-8" points="161.26 92.17 158.17 92.17 158.28 92.98 161.37 92.98 161.26 92.17"/><polygon class="cls-8" points="166.22 92.16 163.13 92.16 163.24 92.98 166.33 92.97 166.22 92.16"/><polygon class="cls-8" points="171.18 92.15 168.09 92.16 168.2 92.97 171.29 92.97 171.18 92.15"/><polygon class="cls-8" points="176.14 92.15 173.05 92.15 173.16 92.96 176.25 92.96 176.14 92.15"/><polygon class="cls-8" points="181.1 92.14 178.01 92.14 178.12 92.96 181.21 92.95 181.1 92.14"/><path class="cls-9" d="M202.48,41.2c-.67,4.52,0,9,3.24,7.88,1,1.9-1,7.15-1,7.15l7.46-1.1S212,39.73,202.48,41.2Z"/><path class="cls-1" d="M213.55,66.9a46.24,46.24,0,0,1,4.8,6.37,5,5,0,0,1,.77,2.91,36.63,36.63,0,0,1-1.1,7.56l1.27,1.78a43,43,0,0,0,4.9-11,5.64,5.64,0,0,0-.1-2.91C221.34,62.09,219,52,212.2,54.64,207.19,56.6,211.71,64.9,213.55,66.9Z"/><rect class="cls-8" x="197.43" y="42.53" width="2.12" height="72.49" transform="translate(49.57 231.83) rotate(-67.43)"/><polygon class="cls-6" points="165.42 63.88 164.61 65.83 160.91 63.73 157.2 61.61 161.32 62.74 165.42 63.88"/><polygon class="cls-3" points="161.32 62.74 160.91 63.73 157.2 61.61 161.32 62.74"/><path class="cls-2" d="M215.26,73.37a18.54,18.54,0,0,0-.55,2.71l-4.83.71-5.53-.17a9,9,0,0,0,.31-1.58A7.91,7.91,0,0,0,201,66.92c-5.39-3.2-3.32-12.8,10.39-13.69C222.06,52.54,217.08,66.18,215.26,73.37Z"/><path class="cls-10" d="M215.26,73.37a18.54,18.54,0,0,0-.55,2.71l-4.83.71-5.53-.17a9,9,0,0,0,.31-1.58C207.73,73.82,212.4,73.46,215.26,73.37Z"/><path class="cls-3" d="M214.71,76.07c10.64,10.18,9.63,46.12,9.08,52.27h-2.66s-4.86-30.72-16.78-45.12C207.28,79.37,214.71,76.07,214.71,76.07Z"/><path class="cls-11" d="M204.35,76.62c-11.19,18.89-5.69,40.81-1.93,51.72h2.48s-.64-22.28,6.6-37.51c0,0,8.62-4.58,3.21-14.76C214.71,76.07,211.32,75.43,204.35,76.62Z"/><path class="cls-9" d="M205.1,130.7c-.09-.8-.16-1.61-.2-2.36h-2.48l-.06,2.36Z"/><path class="cls-11" d="M202.36,130.7c-2,1.94-5.59,3.15-8.31,3.84a.37.37,0,0,0,.09.72h10.41a1,1,0,0,0,1-1.2c-.14-.86-.33-2.09-.48-3.36Z"/><path class="cls-9" d="M224,130.7c-.09-.8-.17-1.61-.21-2.36H221.3l-.06,2.36Z"/><path class="cls-3" d="M221.24,130.7c-2,1.94-5.59,3.15-8.31,3.84a.37.37,0,0,0,.09.72h10.41a1,1,0,0,0,1-1.2c-.14-.86-.32-2.09-.47-3.36Z"/><path class="cls-1" d="M193.21,65.3c2-2.82,4.53-6.59,8.8-9.48a3.59,3.59,0,0,1,5.12,4.73A42.55,42.55,0,0,1,199.77,70a13,13,0,0,1-10.42,3.66,50.63,50.63,0,0,1-15.17-3.61l.69-2.06s7.9,1.35,14.55-.13A6.27,6.27,0,0,0,193.21,65.3Z"/><path class="cls-12" d="M205,44c-6.44-2-5.09-6.64-1-8.11s7.06.59,8,3.9c.72,2.58,2,3.53,4.13,3.48s2.66,2.2,2.57,3.8.69,3.81,4,4,3.53,5.13,2.66,7.15,6.42,9.13-2.66,9.4-1.92-7.66-7.29-8.62-5.82-4.17-6-8.85S207.05,44.67,205,44Z"/><path class="cls-9" d="M174.87,68c-.14-1.62-2.29-2-3.09-1.48.9.75-.39,1.86-2.39,1.3.42,1.36,2.41,2.72,4.79,2.24Z"/><rect class="cls-13" width="244.2" height="146.05"/></g></g></svg>