<svg xmlns="http://www.w3.org/2000/svg" viewBox="0 0 228 169"><defs><style>.cls-1{fill:none;}.cls-2{fill:#ffac38;}.cls-3{fill:#ff97a6;}.cls-4{fill:#f4e7d4;}.cls-5{fill:#aacce9;}.cls-6{fill:#8eb9dc;}.cls-7{fill:#fff;}.cls-8{fill:#c43b71;}.cls-9{fill:#357a5f;}.cls-10{fill:#295a6e;}.cls-11{fill:#970e32;}.cls-12{fill:#ad2452;}.cls-13{fill:#31193c;}.cls-14{fill:#3b2b5a;}.cls-15{fill:#ffcb49;}.cls-16{fill:#ff9a2e;}.cls-17{fill:#fa7089;}</style></defs><g id="Capa_2" data-name="Capa 2"><g id="Capa_1-2" data-name="Capa 1"><rect class="cls-1" width="228" height="169"/><path class="cls-2" d="M167.74,64.27c-5.51-.82-10.14,12.14-8.56,29.25a75.47,75.47,0,0,1-18.08-4.6l-.73,2s11.59,9.94,24.21,11.29c4.9.52,5.89-7.78,7-14.9C173.28,76.1,172.45,65,167.74,64.27Z"/><rect class="cls-3" x="118.09" y="37.31" width="13.81" height="13.81" rx="1.43"/><rect class="cls-4" x="135.65" y="37.31" width="13.81" height="13.81" rx="1.43"/><rect class="cls-4" x="118.09" y="54.52" width="13.81" height="13.81" rx="1.43"/><rect class="cls-3" x="135.65" y="54.52" width="13.81" height="13.81" rx="1.43"/><path class="cls-4" d="M124.26,48.93h0a.49.49,0,0,1-.43-.26l-3.1-5.74a.5.5,0,0,1,.2-.66.49.49,0,0,1,.67.2l2.66,4.94,4.13-7.65a.49.49,0,1,1,.87.47l-4.56,8.44A.51.51,0,0,1,124.26,48.93Z"/><path class="cls-4" d="M141.82,66.14h0a.49.49,0,0,1-.43-.26l-3.1-5.74a.49.49,0,0,1,.2-.66.49.49,0,0,1,.67.2l2.66,4.94L146,57a.49.49,0,1,1,.86.47l-4.56,8.44A.48.48,0,0,1,141.82,66.14Z"/><polygon class="cls-5" points="146.32 77.93 151.47 95.52 139.85 95.52 134.69 77.93 146.32 77.93"/><polygon class="cls-6" points="147.1 77.93 152.26 95.52 151.47 95.52 146.32 77.93 147.1 77.93"/><path class="cls-7" d="M141.88,87c.16,1,.75,1.88,1.33,1.88s.92-.84.76-1.88-.75-1.87-1.33-1.87S141.72,86,141.88,87Z"/><polygon class="cls-8" points="131.55 126.45 128.73 143.08 127.74 148.95 114.64 148.95 113.04 139.53 110.83 126.45 131.55 126.45"/><path class="cls-9" d="M129.32,126.45H115.25c-5.47-2.87-8.5-13.76-.37-13.76-7.76-7.16-3.64-12.74,1.21-11.4-8.61-4.12-3.39-16.14,1.22-10.56-1.33-3.18.62-5.15,3.17-5.8,3.49-.91,8.08.64,7,4.83,5.95-4.13,9.1,12.86,1.82,15.16,5.56-.48,4.62,6-1,8.86C133,113.06,136.6,117.18,129.32,126.45Z"/><path class="cls-10" d="M121.72,126.45h-6.47c-5.47-2.87-8.5-13.76-.37-13.76-7.76-7.16-3.64-12.74,1.21-11.4-8.61-4.12-3.39-16.14,1.22-10.56-1.33-3.18.62-5.15,3.17-5.8C131.13,98.79,115.63,111.12,121.72,126.45Z"/><path class="cls-11" d="M128.73,143.08l-1,5.87h-13.1l-1.6-9.42a13.35,13.35,0,0,0,15.69,3.55Z"/><path class="cls-8" d="M214.87,60.79c-.92,9.72-2.49,24.49-4.76,39.6-.86,5.76-1.81,11.58-2.89,17.18a9.31,9.31,0,0,1-8,7.46,163.81,163.81,0,0,1-26.72,1.71c-2.59-.09-5.1-.29-7.54-.62-4.49-.61-4.72-7.05-.25-7.84,2.62-.45,5.33-.82,8-1.1,1.33-.14,2.65-.25,3.94-.35-.13-4.39-.14-9.27-.07-14.4.28-14.85,1.49-31.77,3.83-44.74A11.73,11.73,0,0,1,191.2,48.1a108.65,108.65,0,0,1,12.56-.2A11.76,11.76,0,0,1,214.87,60.79Z"/><path class="cls-12" d="M203.24,113.42c-4.13-24.91-.15-43.1,4.22-55.8a2.7,2.7,0,0,1,5.26.74C213.68,76.86,208.83,103.24,203.24,113.42Z"/><path class="cls-12" d="M178.72,108.57a268.23,268.23,0,0,1,2.43-45.71,12.28,12.28,0,0,1,12.19-10.48h1.12a6.25,6.25,0,0,1,5.48,9c-1.46,2.89-2.68,6.27-1.07,11,3.27,9.59-4,16.27-1.58,21s-5.7,8.86-3.64,14.68S182.36,117.79,178.72,108.57Z"/><rect class="cls-13" x="182.54" y="140" width="5.16" height="7.52"/><rect class="cls-14" x="183.95" y="125.12" width="2.35" height="14.88"/><polygon class="cls-14" points="202.96 154.71 187.7 141.22 187.7 146.44 202.96 154.71"/><polygon class="cls-14" points="167.29 154.71 182.54 141.22 182.54 146.44 167.29 154.71"/><polygon class="cls-14" points="185.12 154.71 186.97 147.53 183.27 147.53 185.12 154.71"/><path class="cls-13" d="M187.7,154.71a2.58,2.58,0,1,1-2.58-2.58A2.57,2.57,0,0,1,187.7,154.71Z"/><path class="cls-13" d="M169.87,154.71a2.58,2.58,0,1,1-2.58-2.58A2.58,2.58,0,0,1,169.87,154.71Z"/><path class="cls-13" d="M205.54,154.71a2.58,2.58,0,1,1-2.58-2.58A2.58,2.58,0,0,1,205.54,154.71Z"/><path class="cls-15" d="M191.53,103.34,167.33,102c-11.42-35.78-1.66-39.62,2.26-39.84H170a5.32,5.32,0,0,1,1.06.09l11.54-.32a10.2,10.2,0,0,1,1.14.08,11.18,11.18,0,0,1,2.1.39C198.27,65.92,193.82,89,191.53,103.34Z"/><path class="cls-8" d="M185.82,62.41c-6.43.2-11.94,8.49-12.76,10.76a15.39,15.39,0,0,1-3.08-11,5.32,5.32,0,0,1,1.06.09l11.54-.32a10.2,10.2,0,0,1,1.14.08A11.18,11.18,0,0,1,185.82,62.41Z"/><path class="cls-13" d="M170,117.69H154.25S144,127.86,140.28,146l-2.34.07s-.79-18.47,1.91-32.95a11,11,0,0,1,9.94-9c13.43-1.43,31.21.14,34.81,1.22v0A14.77,14.77,0,0,1,170,117.69Z"/><polygon class="cls-3" points="140.28 146 140.08 147.94 138.07 147.78 137.94 146.07 140.28 146"/><path class="cls-13" d="M140.08,147.94c.24,1.39.47,3.74.59,5.09a1,1,0,0,1-1,1.14,65.59,65.59,0,0,1-12.23-.22.69.69,0,0,1,0-1.37c5.47-1,9.79-3.58,10.63-4.8Z"/><path class="cls-3" d="M161.46,43.57c1,1.7,1.88,6.75,1.88,6.75l1.65-.69s.65,5.92,4.5,3.9c2,2,1.56,8.73,1.56,8.73s-.7,3.56,1.86,8.57a17.29,17.29,0,0,1,9.67-8.9c-3-2.84-5.65-9.87-5.65-9.87l-5.23-12.3Z"/><path class="cls-14" d="M177.69,116.16H160s-5.3,10-4.2,29.2l-2.34.68s-5.69-18.34-6.83-33.61a9.73,9.73,0,0,1,8.73-10.35c14-1.48,32.44.15,36.18,1.27,0,0-.11.63-.3,1.62A13.79,13.79,0,0,1,177.69,116.16Z"/><polygon class="cls-3" points="155.79 145.36 156.1 147.35 154.03 147.73 153.45 146.04 155.79 145.36"/><path class="cls-14" d="M156.1,147.35c.61,1.34,1.46,3.64,1.94,5a1.09,1.09,0,0,1-.66,1.4,68.6,68.6,0,0,1-12.35,3,.73.73,0,0,1-.41-1.38c5.24-2.46,8.89-6.19,9.41-7.64Z"/><path class="cls-16" d="M191.28,94.49c1.43-6,3.58-17.42,2-25.06-1-4.94-8-5.71-9.8-1-2.89,7.33-4.13,18.85-3.85,23.32a60.23,60.23,0,0,1-19.16-2.08l-.22,2.25s12.36,9.35,23.48,8.8A8.17,8.17,0,0,0,191.28,94.49Z"/><path class="cls-17" d="M160.45,89.66c-2.68-.87-4.1-3.22-5.84-3.7a34.32,34.32,0,0,1-4.33-1.74s-.46.08-.14.52,2.57,1.25,3,1.82-.42,2.27,1.93,2.65l.95-.6a14,14,0,0,0,4.2,3.3Z"/><path class="cls-14" d="M165,49.63c3.2-1.14,3.38-3.14,2.9-4.66a8.4,8.4,0,0,0-1.35-2.54,11.93,11.93,0,0,0-5.9,2.18c-3,2.09-5.13-1.82-5.34-4.4s3.58-3.61,3.58-3.61-2.07-2.58,1.61-3.82,3.12,2.09,3.12,2.09,4.25-4.52,5.86-.12c2-3.76,7.13-1.18,6.55,3.28s-1,4.79,1,6.19.49,6.62-.12,7.84c-1.71-2-2.63-3.67-4.64-4.71a1.44,1.44,0,0,1-.72-1.73,2.06,2.06,0,0,0-2.32-2.77c.91,2.94,2.7,11-2.33,15.9-.12-2.94-2.25-6.66-2.46-8.9Z"/><polygon class="cls-3" points="165.29 51.5 167.05 50.69 167.13 51.65 165.55 52.33 165.29 51.5"/><path class="cls-3" d="M138.36,90.45c-2.87-1.93-5.05-4.81-1.93-6.59,1.41-.61,4.52,2.88,1.19,4Z"/><path class="cls-11" d="M210.11,100.39c-.86,5.76-1.81,11.58-2.89,17.18a9.31,9.31,0,0,1-8,7.46,163.81,163.81,0,0,1-26.72,1.71,79,79,0,0,1,.33-10.81,16.64,16.64,0,0,1,15.19-15.14A184.44,184.44,0,0,1,210.11,100.39Z"/><path class="cls-14" d="M165,45.39c.23.71.28,1.34.11,1.39s-.49-.49-.71-1.2-.27-1.35-.11-1.4S164.81,44.67,165,45.39Z"/></g></g></svg>