<svg xmlns="http://www.w3.org/2000/svg" viewBox="0 0 119.9 139.81"><defs><style>.cls-1{fill:#71a3d5;}.cls-2{fill:#aacce9;}.cls-3{fill:#31193c;}.cls-4{fill:#6c55b2;}.cls-5{fill:#f4e7d4;}.cls-6{fill:#ffcb49;}.cls-7{fill:#fff;}.cls-8{fill:#c43b71;}.cls-9{fill:#ff97a6;}.cls-10{fill:#8eb9dc;}.cls-11{fill:#3b2b5a;}.cls-12{fill:#ff5e4c;}</style></defs><g id="Capa_2" data-name="Capa 2"><g id="Capa_1-2" data-name="Capa 1"><ellipse class="cls-1" cx="54.76" cy="15.4" rx="15.45" ry="15.4"/><ellipse class="cls-2" cx="54.76" cy="15.4" rx="13.57" ry="13.53"/><path class="cls-1" d="M55.8,15.4a1,1,0,1,1-1-1A1,1,0,0,1,55.8,15.4Z"/><polygon class="cls-1" points="53.72 15.4 54.76 5.93 55.8 15.4 54.76 15.4 53.72 15.4"/><polygon class="cls-1" points="55.42 14.7 63.28 23.46 54.09 16.1 54.76 15.4 55.42 14.7"/><polygon class="cls-3" points="57.4 36.85 6.29 36.92 0 139.81 51.12 139.75 57.4 36.85"/><polygon class="cls-4" points="57.39 36.85 6.29 36.92 19.74 139.81 70.84 139.75 57.39 36.85"/><path class="cls-5" d="M52.73,39.89l-41,.06a1.63,1.63,0,0,0-1.68,1.88L22.22,134.9a2.24,2.24,0,0,0,2.18,1.87l41-.05a1.64,1.64,0,0,0,1.69-1.88L54.9,41.77A2.23,2.23,0,0,0,52.73,39.89Z"/><polygon class="cls-6" points="52.33 42.57 12.84 42.62 13.17 45.15 52.66 45.1 52.33 42.57"/><polygon class="cls-7" points="17.69 51.33 13.98 51.33 14.84 57.95 18.56 57.94 17.69 51.33"/><polygon class="cls-7" points="23.66 51.32 19.94 51.33 20.8 57.94 24.52 57.93 23.66 51.32"/><polygon class="cls-7" points="29.62 51.31 25.9 51.32 26.77 57.93 30.48 57.92 29.62 51.31"/><polygon class="cls-7" points="35.58 51.3 31.86 51.31 32.73 57.92 36.44 57.92 35.58 51.3"/><polygon class="cls-7" points="41.54 51.3 37.83 51.3 38.69 57.91 42.41 57.91 41.54 51.3"/><polygon class="cls-7" points="47.51 51.29 43.79 51.29 44.65 57.91 48.37 57.9 47.51 51.29"/><polygon class="cls-7" points="53.47 51.28 49.75 51.28 50.62 57.9 54.33 57.89 53.47 51.28"/><polygon class="cls-7" points="18.9 60.54 15.18 60.55 16.05 67.16 19.76 67.16 18.9 60.54"/><polygon class="cls-7" points="24.86 60.53 21.14 60.54 22.01 67.15 25.72 67.15 24.86 60.53"/><polygon class="cls-7" points="30.82 60.53 27.11 60.53 27.97 67.14 31.69 67.14 30.82 60.53"/><polygon class="cls-7" points="36.78 60.52 33.07 60.52 33.93 67.14 37.65 67.13 36.78 60.52"/><polygon class="cls-7" points="42.75 60.51 39.03 60.52 39.9 67.13 43.61 67.12 42.75 60.51"/><polygon class="cls-7" points="48.71 60.5 44.99 60.51 45.86 67.12 49.57 67.12 48.71 60.5"/><polygon class="cls-7" points="54.67 60.5 50.96 60.5 51.82 67.11 55.54 67.11 54.67 60.5"/><polygon class="cls-7" points="20.1 69.76 16.39 69.76 17.25 76.38 20.97 76.37 20.1 69.76"/><polygon class="cls-7" points="26.06 69.75 22.35 69.76 23.21 76.37 26.93 76.36 26.06 69.75"/><polygon class="cls-7" points="32.03 69.74 28.31 69.75 29.18 76.36 32.89 76.36 32.03 69.74"/><polygon class="cls-7" points="37.99 69.73 34.27 69.74 35.14 76.35 38.85 76.35 37.99 69.73"/><polygon class="cls-7" points="43.95 69.73 40.24 69.73 41.1 76.34 44.82 76.34 43.95 69.73"/><polygon class="cls-7" points="49.91 69.72 46.2 69.72 47.06 76.34 50.78 76.33 49.91 69.72"/><polygon class="cls-7" points="55.88 69.71 52.16 69.72 53.02 76.33 56.74 76.32 55.88 69.71"/><polygon class="cls-8" points="17.23 47.75 13.51 47.75 13.64 48.73 17.35 48.72 17.23 47.75"/><polygon class="cls-8" points="23.19 47.74 19.47 47.75 19.6 48.72 23.32 48.72 23.19 47.74"/><polygon class="cls-8" points="29.15 47.73 25.43 47.74 25.56 48.71 29.28 48.71 29.15 47.73"/><polygon class="cls-8" points="35.11 47.73 31.4 47.73 31.52 48.71 35.24 48.7 35.11 47.73"/><polygon class="cls-8" points="41.08 47.72 37.36 47.72 37.49 48.7 41.2 48.69 41.08 47.72"/><polygon class="cls-8" points="47.04 47.71 43.32 47.71 43.45 48.69 47.16 48.69 47.04 47.71"/><polygon class="cls-8" points="53 47.7 49.28 47.71 49.41 48.68 53.13 48.68 53 47.7"/><polygon class="cls-6" points="57.62 83.01 18.13 83.06 18.46 85.59 57.95 85.54 57.62 83.01"/><polygon class="cls-6" points="62.63 121.36 23.14 121.41 24.83 134.35 64.32 134.3 62.63 121.36"/><polygon class="cls-7" points="22.98 91.77 19.26 91.78 20.13 98.39 23.84 98.38 22.98 91.77"/><polygon class="cls-7" points="28.94 91.76 25.23 91.77 26.09 98.38 29.81 98.38 28.94 91.76"/><polygon class="cls-7" points="34.9 91.75 31.19 91.76 32.05 98.37 35.77 98.37 34.9 91.75"/><polygon class="cls-7" points="40.87 91.75 37.15 91.75 38.02 98.36 41.73 98.36 40.87 91.75"/><polygon class="cls-7" points="46.83 91.74 43.11 91.74 43.98 98.36 47.69 98.35 46.83 91.74"/><polygon class="cls-7" points="52.79 91.73 49.08 91.74 49.94 98.35 53.66 98.34 52.79 91.73"/><polygon class="cls-7" points="58.75 91.72 55.04 91.73 55.9 98.34 59.62 98.34 58.75 91.72"/><polygon class="cls-7" points="24.18 100.99 20.47 100.99 21.33 107.6 25.05 107.6 24.18 100.99"/><polygon class="cls-7" points="30.15 100.98 26.43 100.98 27.3 107.6 31.01 107.59 30.15 100.98"/><polygon class="cls-7" points="36.11 100.97 32.39 100.98 33.26 107.59 36.97 107.58 36.11 100.97"/><polygon class="cls-7" points="42.07 100.96 38.36 100.97 39.22 107.58 42.94 107.58 42.07 100.96"/><polygon class="cls-7" points="48.03 100.95 44.32 100.96 45.18 107.57 48.9 107.57 48.03 100.95"/><polygon class="cls-7" points="53.99 100.95 50.28 100.95 51.15 107.56 54.86 107.56 53.99 100.95"/><polygon class="cls-7" points="59.96 100.94 56.24 100.94 57.11 107.56 60.82 107.55 59.96 100.94"/><polygon class="cls-7" points="25.39 110.2 21.67 110.21 22.54 116.82 26.25 116.81 25.39 110.2"/><polygon class="cls-7" points="31.35 110.19 27.64 110.2 28.5 116.81 32.22 116.81 31.35 110.19"/><polygon class="cls-7" points="37.31 110.19 33.6 110.19 34.46 116.8 38.18 116.8 37.31 110.19"/><polygon class="cls-7" points="43.27 110.18 39.56 110.18 40.42 116.8 44.14 116.79 43.27 110.18"/><polygon class="cls-7" points="49.24 110.17 45.52 110.17 46.39 116.79 50.1 116.78 49.24 110.17"/><polygon class="cls-7" points="55.2 110.16 51.48 110.17 52.35 116.78 56.06 116.78 55.2 110.16"/><polygon class="cls-7" points="61.16 110.15 57.45 110.16 58.31 116.77 62.03 116.77 61.16 110.15"/><polygon class="cls-8" points="22.51 88.19 18.8 88.2 18.92 89.17 22.64 89.17 22.51 88.19"/><polygon class="cls-8" points="28.47 88.18 24.76 88.19 24.89 89.17 28.6 89.16 28.47 88.18"/><polygon class="cls-8" points="34.44 88.18 30.72 88.18 30.85 89.16 34.56 89.15 34.44 88.18"/><polygon class="cls-8" points="40.4 88.17 36.68 88.17 36.81 89.15 40.53 89.14 40.4 88.17"/><polygon class="cls-8" points="46.36 88.16 42.65 88.17 42.77 89.14 46.49 89.14 46.36 88.16"/><polygon class="cls-8" points="52.32 88.15 48.61 88.16 48.74 89.13 52.45 89.13 52.32 88.15"/><polygon class="cls-8" points="58.28 88.14 54.57 88.15 54.7 89.13 58.41 89.12 58.28 88.14"/><path class="cls-9" d="M84,27.1c-.8,5.42,0,10.77,3.9,9.45,1.17,2.27-1.18,8.57-1.18,8.57l9-1.32S95.37,25.34,84,27.1Z"/><path class="cls-1" d="M97.28,57.9a55.8,55.8,0,0,1,5.78,7.64A6,6,0,0,1,104,69a43.59,43.59,0,0,1-1.32,9l1.53,2.13s4.38-6.86,5.89-13.23A6.84,6.84,0,0,0,110,63.5c-3.31-11.36-6.1-23.47-14.29-20.28C89.64,45.56,95.08,55.51,97.28,57.9Z"/><polygon class="cls-8" points="119.9 87.62 118.92 89.96 38.47 56.63 39.45 54.28 119.9 87.62"/><polygon class="cls-6" points="39.44 54.28 38.46 56.63 34.02 54.1 29.56 51.57 34.51 52.92 39.44 54.28"/><polygon class="cls-3" points="34.51 52.92 34.02 54.1 29.56 51.57 34.51 52.92"/><path class="cls-2" d="M99.34,65.65a22.5,22.5,0,0,0-.66,3.25l-5.81.86-6.64-.21a10.6,10.6,0,0,0,.37-1.89c.3-2.56.09-7.09-4.38-9.73-6.47-3.84-4-15.34,12.49-16.4C107.51,40.7,101.53,57,99.34,65.65Z"/><path class="cls-10" d="M99.34,65.65a22.5,22.5,0,0,0-.66,3.25l-5.81.86-6.64-.21a10.6,10.6,0,0,0,.37-1.89C90.29,66.19,95.91,65.76,99.34,65.65Z"/><path class="cls-3" d="M98.68,68.89c12.78,12.2,11.57,55.27,10.91,62.63h-3.2s-5.84-36.81-20.16-54.06C89.75,72.85,98.68,68.89,98.68,68.89Z"/><path class="cls-11" d="M86.23,69.55c-13.45,22.63-6.84,48.89-2.32,62h3s-.77-26.7,7.93-44.94c0,0,10.36-5.49,3.86-17.69C98.68,68.89,94.6,68.12,86.23,69.55Z"/><path class="cls-9" d="M87.13,134.35c-.11-1-.2-1.93-.24-2.83h-3l-.07,2.83Z"/><path class="cls-11" d="M83.84,134.35c-2.37,2.32-6.72,3.78-10,4.6a.44.44,0,0,0,.11.86H86.47a1.24,1.24,0,0,0,1.23-1.44c-.17-1-.39-2.5-.57-4Z"/><path class="cls-9" d="M109.82,134.35c-.11-1-.2-1.93-.24-2.83h-3l-.07,2.83Z"/><path class="cls-3" d="M106.53,134.35c-2.37,2.32-6.72,3.78-10,4.6a.44.44,0,0,0,.11.86h12.51a1.24,1.24,0,0,0,1.23-1.44c-.17-1-.39-2.5-.57-4Z"/><path class="cls-1" d="M72.84,56c2.36-3.39,5.45-7.9,10.57-11.36a4.31,4.31,0,0,1,6.16,5.67,51.71,51.71,0,0,1-8.85,11.33A15.64,15.64,0,0,1,68.2,66,60.49,60.49,0,0,1,50,61.69l.83-2.47s9.5,1.62,17.49-.15A7.64,7.64,0,0,0,72.84,56Z"/><path class="cls-12" d="M87.05,30.49c-7.73-2.45-6.12-8-1.21-9.72s8.49.71,9.59,4.67c.86,3.1,2.42,4.23,5,4.17s3.19,2.64,3.08,4.56.83,4.56,4.85,4.84,4.25,6.15,3.2,8.57,7.71,10.93-3.2,11.26S106,49.66,99.56,48.51s-7-5-7.16-10.6S89.48,31.26,87.05,30.49Z"/><path class="cls-9" d="M50.79,59.22c-.16-1.94-2.75-2.34-3.71-1.77,1.08.89-.47,2.22-2.87,1.56.5,1.62,2.89,3.25,5.75,2.68Z"/></g></g></svg>