<svg xmlns="http://www.w3.org/2000/svg" viewBox="0 0 244.2 146.05"><defs><style>.cls-1{isolation:isolate;}.cls-2{fill:#295a6e;}.cls-3{fill:#31193c;}.cls-4{fill:#ff97a6;}.cls-5{fill:#3b2b5a;}.cls-6{fill:#357a5f;}.cls-7{fill:#1f6864;}.cls-12,.cls-8{fill:#aacce9;}.cls-9{fill:#71a3d5;}.cls-10{fill:#c43b71;}.cls-11{fill:#ff5e4c;}.cls-12{opacity:0.5;mix-blend-mode:screen;}.cls-13{fill:#970e32;}.cls-14{fill:#8eb9dc;}.cls-15{fill:#fff;}.cls-16{fill:none;}</style></defs><g class="cls-1"><g id="Capa_2" data-name="Capa 2"><g id="Layer_1" data-name="Layer 1"><path class="cls-2" d="M50.15,51.22a49.39,49.39,0,0,1,.92-14.45,3.4,3.4,0,0,1,6.64-.11c1.28,5.51,1.72,10.93,1,14.09,0,0,6.53,3.29,13.09,3.43l-.08,1.62s-9,2.19-16.88.63A5.88,5.88,0,0,1,50.15,51.22Z"/><path class="cls-3" d="M52.51,71.48H63.85s3.66,6.91,2.9,20.2l1.62.48s3.94-12.69,4.72-23.25a6.73,6.73,0,0,0-6-7.16c-9.65-1-22.43.1-25,.87v0A10.62,10.62,0,0,0,52.51,71.48Z"/><polygon class="cls-4" points="66.75 91.68 66.54 93.06 67.97 93.33 68.37 92.16 66.75 91.68"/><path class="cls-3" d="M66.54,93.06c-.42.93-1,2.52-1.34,3.44a.74.74,0,0,0,.45,1,48,48,0,0,0,8.54,2.09.5.5,0,0,0,.28-1c-3.62-1.7-6.15-4.28-6.5-5.28Z"/><path class="cls-5" d="M47,70.38H59.72s3.81,7.18,3,21l1.68.5s4.09-13.19,4.91-24.17a7,7,0,0,0-6.28-7.44c-10-1.06-23.32.11-26,.91,0,0,.08.45.22,1.17A9.9,9.9,0,0,0,47,70.38Z"/><polygon class="cls-4" points="62.74 91.37 62.52 92.81 64 93.08 64.42 91.87 62.74 91.37"/><path class="cls-5" d="M62.52,92.81c-.44,1-1.05,2.61-1.4,3.57a.78.78,0,0,0,.48,1,49.56,49.56,0,0,0,8.87,2.17.52.52,0,0,0,.3-1C67,96.8,64.37,94.12,64,93.08Z"/><path class="cls-6" d="M54.44,60.22l-17.4,1C35.3,50.3,31.86,32.51,42.66,31.45c.26,0,.54,0,.81-.05l8.3.23a4.18,4.18,0,0,1,1-.05C55.64,31.73,62.65,34.49,54.44,60.22Z"/><path class="cls-2" d="M32.71,50A49.44,49.44,0,0,1,36.59,36a3.4,3.4,0,0,1,6.52,1.26c.12,5.66-.57,11.05-1.87,14,0,0,5.71,4.57,12.09,6.06l-.41,1.57s-9.29.28-16.65-2.87A5.87,5.87,0,0,1,32.71,50Z"/><path class="cls-4" d="M53.33,57.36c.87.16,1.72.87,2.6.41a1.63,1.63,0,0,1,2.48,1.12s-4,.12-5.49,0Z"/><path class="cls-7" d="M52.81,31.58c-2.77,2.64-8,1.91-10.15-.13.26,0,.54,0,.81-.05l8.3.23A4.18,4.18,0,0,1,52.81,31.58Z"/><path class="cls-4" d="M58.66,18.19a20.23,20.23,0,0,0-1.35,4.86l-1.19-.5s-.46,4.26-3.23,2.81c-1.42,1.45-1.13,6.27-1.13,6.27a9.11,9.11,0,0,1-8.28-.23c2.18-2,4.06-7.1,4.06-7.1l3.76-8.84Z"/><path class="cls-5" d="M52.23,20.54l.72.36s.76-3.17,1.95-3.3S60.51,20.27,61,19,62.79,14.7,58.73,15c.82-1.88-1.72-1.82-2.38-1.22s-4.12-2.74-4.55,0C50.41,12,47.87,15.36,49,17.83c-2.44.33-3.13,3.27-1.45,6.47.92-1.32,4-2.24,4.09-3.46-1.65-1.75.07-3.11.93-2.94S52.23,20.54,52.23,20.54Z"/><path class="cls-8" d="M57.73,129H22.4a33.58,33.58,0,0,1,1.94-10.63c2.28-6.3,6.37-11,11.29-12.83a4.33,4.33,0,0,0,2.1-1.66,4.6,4.6,0,0,0-2.1-6.83,14.54,14.54,0,0,1-3.16-1.62C26.69,91.55,22.62,83.3,22.4,73.62H57.73C57.48,85,51.92,94.35,44.51,97.08a4.57,4.57,0,0,0,0,8.49l.33.13C52.08,108.59,57.48,117.86,57.73,129Z"/><rect class="cls-9" x="20.99" y="70.38" width="38.15" height="2.29"/><rect class="cls-9" x="20.99" y="129.98" width="38.15" height="2.29"/><path class="cls-10" d="M55.16,82.71C49.21,88,35.34,90.5,24.28,80.14,37.55,73.62,45,90.73,55.16,82.71Z"/><path class="cls-11" d="M38.36,116.68C36.23,124,30.72,129,22.4,129H57.73a16.27,16.27,0,0,1-9.5-2.8c-4.86-3.42-7.48-9.65-7.48-17v-8.19A5.46,5.46,0,0,1,44.3,96a14.84,14.84,0,0,0,5-3.29,24.15,24.15,0,0,0,5.84-10C49.21,88,35.34,90.5,24.28,80.14A25.32,25.32,0,0,0,30.82,92.7a14.8,14.8,0,0,0,5,3.29,5.45,5.45,0,0,1,3.54,5.08v8.19A26.35,26.35,0,0,1,38.36,116.68Z"/><path class="cls-10" d="M57.73,129H22.4c8.32,0,13.83-5,16-12.35h0c-1.2,4.44.61,8.53,7.25,9.39a14.08,14.08,0,0,1,4.51,1.29A16.93,16.93,0,0,0,57.73,129Z"/><path class="cls-12" d="M57.73,129H22.4a33.58,33.58,0,0,1,1.94-10.63,12.4,12.4,0,0,0,20.5-12.7C52.08,108.59,57.48,117.86,57.73,129Z"/><path class="cls-12" d="M43.13,87.74a15,15,0,0,1-10.66,7.72C26.69,91.55,22.62,83.3,22.4,73.62H43.1A14.94,14.94,0,0,1,43.13,87.74Z"/><rect class="cls-10" x="24.98" y="61.99" width="6.03" height="8.39"/><path class="cls-13" d="M29.45,66.19c0,1.13-.65,2.06-1.45,2.06s-1.46-.93-1.46-2.06.65-2.07,1.46-2.07S29.45,65.05,29.45,66.19Z"/><path class="cls-13" d="M31,67.43c1.2-.71,1.77-1.72,1.62-2.32s-.71-.74-1.62-.74v-1c2,0,2.44,1,2.55,1.47.29,1.19-.66,2.64-2.33,3.52a.54.54,0,0,1-.22,0Z"/><rect class="cls-14" x="50.43" y="59.74" width="16.69" height="0.71"/><path class="cls-14" d="M46.76,60.45h3.67v-.71H46.05A.71.71,0,0,0,46.76,60.45Z"/><polygon class="cls-8" points="64.81 45.68 57.78 60.45 72.2 60.45 79.22 45.68 64.81 45.68"/><polygon class="cls-14" points="64.06 45.68 57.04 60.45 57.78 60.45 64.81 45.68 64.06 45.68"/><path class="cls-15" d="M70.59,53.34c-.51,1.61-1.75,2.92-2.76,2.92s-1.42-1.31-.9-2.92,1.75-2.92,2.76-2.92S71.11,51.72,70.59,53.34Z"/><path class="cls-5" d="M56.27,20.27c-.22.59-.5,1-.64,1s-.08-.58.14-1.17.51-1,.65-1S56.49,19.68,56.27,20.27Z"/><rect class="cls-16" width="244.2" height="146.05"/></g></g></g></svg>