<svg xmlns="http://www.w3.org/2000/svg" viewBox="0 0 244.2 146.05"><defs><style>.cls-1{isolation:isolate;}.cls-2{fill:#ff9a2e;}.cls-3{fill:#ff97a6;}.cls-4{fill:#71a3d5;}.cls-5,.cls-6{fill:#aacce9;}.cls-6{mix-blend-mode:multiply;}.cls-7{fill:#3b2b5a;}.cls-8{fill:#f4e7d4;}.cls-9{fill:#6c55b2;}.cls-10{fill:#31193c;}.cls-11{fill:#ffcb49;}.cls-12{fill:none;}</style></defs><g class="cls-1"><g id="Capa_2" data-name="Capa 2"><g id="Layer_1" data-name="Layer 1"><path class="cls-2" d="M37.26,64.08a37.06,37.06,0,0,0,3.43,6.53s7.47,5.12,14.08,5.7v1.91s-10.67.47-16.87-1.7c-7.06-4.37-8.11-8.79-8.11-8.79Z"/><path class="cls-3" d="M54.77,78.22c1.52,0,5.21,3.09,8.17.71.75-.68-1.49-1-2.71-.93a3.23,3.23,0,0,1-2.43-.67,5,5,0,0,0-3-1Z"/><rect class="cls-4" x="81.04" y="122.86" width="23.11" height="1.39" transform="translate(216.16 30.96) rotate(90)"/><rect class="cls-4" x="44.94" y="122.86" width="23.11" height="1.39" transform="translate(180.05 67.06) rotate(90)"/><path class="cls-5" d="M57.76,134.26v-21.4A20.25,20.25,0,0,1,64.2,114c3.82,1.38,6.69,3.86,7.78,6.84a2.58,2.58,0,0,0,1,1.27,2.78,2.78,0,0,0,4.14-1.27,8.42,8.42,0,0,1,1-1.91c2.37-3.51,7.36-6,13.23-6.1v21.4c-6.88-.16-12.56-3.52-14.21-8a2.76,2.76,0,0,0-5.14,0,1.67,1.67,0,0,0-.08.2C70.15,130.84,64.53,134.1,57.76,134.26Z"/><path class="cls-6" d="M57.76,134.26v-21.4A20.25,20.25,0,0,1,64.2,114a7.52,7.52,0,0,0,7.7,12.42C70.15,130.84,64.53,134.1,57.76,134.26Z"/><path class="cls-6" d="M82.78,125.41A9.08,9.08,0,0,1,78.1,119c2.37-3.51,7.36-6,13.23-6.1V125.4A9,9,0,0,1,82.78,125.41Z"/><circle class="cls-7" cx="68.2" cy="52.02" r="28.16" transform="translate(-15.71 69.8) rotate(-49.3)"/><circle class="cls-8" cx="68.2" cy="52.02" r="26.21" transform="translate(-16.81 63.46) rotate(-45)"/><path class="cls-7" d="M70.09,52a1.9,1.9,0,1,1-1.89-1.9A1.89,1.89,0,0,1,70.09,52Z"/><polygon class="cls-7" points="65.97 39.06 61.24 30.43 62.45 40.2 65.51 45.79 67.58 52.22 68.2 52.02 68.82 51.81 66.75 45.39 65.97 39.06"/><polygon class="cls-7" points="77.62 62.41 85.87 68.83 79.05 60.92 73.71 56.76 68.45 51.75 68.2 52.02 67.95 52.28 73.2 57.28 77.62 62.41"/><path d="M92.32,52.13H89a.11.11,0,0,1-.12-.11A.12.12,0,0,1,89,51.9h3.33a.12.12,0,0,1,.12.12A.11.11,0,0,1,92.32,52.13Z"/><path d="M47.41,52.13H44.07A.12.12,0,0,1,44,52a.12.12,0,0,1,.12-.12h3.34a.12.12,0,0,1,.12.12A.12.12,0,0,1,47.41,52.13Z"/><path class="cls-9" d="M68.2,31.58a.36.36,0,0,1-.36-.36V27.89a.36.36,0,1,1,.72,0v3.33A.36.36,0,0,1,68.2,31.58Z"/><path class="cls-9" d="M68.2,76.5a.36.36,0,0,1-.36-.36V72.81a.36.36,0,1,1,.72,0v3.33A.36.36,0,0,1,68.2,76.5Z"/><path class="cls-9" d="M57.8,34.37a.38.38,0,0,1-.31-.18L55.82,31.3a.36.36,0,0,1,.63-.36l1.66,2.89a.36.36,0,0,1-.13.49A.37.37,0,0,1,57.8,34.37Z"/><path class="cls-9" d="M80.26,73.27a.38.38,0,0,1-.31-.18L78.28,70.2a.35.35,0,0,1,.14-.49.36.36,0,0,1,.49.13l1.66,2.89a.36.36,0,0,1-.13.49A.41.41,0,0,1,80.26,73.27Z"/><path class="cls-9" d="M50.19,42a.41.41,0,0,1-.18,0l-2.88-1.67a.35.35,0,0,1-.14-.49.36.36,0,0,1,.49-.13l2.89,1.67a.36.36,0,0,1,.13.49A.38.38,0,0,1,50.19,42Z"/><path class="cls-9" d="M89.09,64.44a.41.41,0,0,1-.18,0L86,62.72a.36.36,0,0,1-.14-.49.37.37,0,0,1,.5-.13l2.88,1.67a.36.36,0,0,1,.13.49A.37.37,0,0,1,89.09,64.44Z"/><path class="cls-9" d="M92.32,52.37H89a.36.36,0,1,1,0-.71h3.33a.36.36,0,1,1,0,.71Z"/><path class="cls-9" d="M47.41,52.37H44.07a.36.36,0,1,1,0-.71h3.34a.36.36,0,0,1,0,.71Z"/><path class="cls-9" d="M78.59,34.37a.34.34,0,0,1-.17,0,.35.35,0,0,1-.14-.49L80,30.94a.36.36,0,0,1,.62.36l-1.66,2.89A.38.38,0,0,1,78.59,34.37Z"/><path class="cls-9" d="M56.14,73.27a.37.37,0,0,1-.18,0,.36.36,0,0,1-.14-.49l1.67-2.89a.36.36,0,0,1,.62.36l-1.66,2.89A.38.38,0,0,1,56.14,73.27Z"/><path class="cls-9" d="M86.21,42a.38.38,0,0,1-.32-.18.36.36,0,0,1,.14-.49l2.88-1.67a.36.36,0,0,1,.36.62l-2.88,1.67A.41.41,0,0,1,86.21,42Z"/><path class="cls-9" d="M47.31,64.44a.38.38,0,0,1-.32-.18.35.35,0,0,1,.14-.49L50,62.1a.36.36,0,1,1,.36.62l-2.89,1.67A.34.34,0,0,1,47.31,64.44Z"/><path class="cls-10" d="M19.35,79.3a12.2,12.2,0,0,0-.68,12s-3.8,15.93-1.22,37.07H20S22.55,103.41,32,88.16l-4.58-9.33Z"/><path class="cls-3" d="M33.19,35.27c-.28,1.37.42,6.39.42,6.39l-1.25,0s.74,3.79-2.28,3.41c-.79,1.81,1.35,7.5,1.35,7.5a23.88,23.88,0,0,1-9.68,1c1.4-1.92,3.08-7.46,2.36-13.07l.73-3.65,5.92-3Z"/><path class="cls-11" d="M36.46,78.29l-17.11,1c-2.68-10.36-7-24.4,3.34-26.42.24-.05.51-.08.78-.12,0,0,6-.47,8.05-.54C33.22,52.15,42.92,48.59,36.46,78.29Z"/><path class="cls-2" d="M49.33,64.37a54.15,54.15,0,0,1-15.81-3.5c-3.78-1.5-3.09-7.25.94-7.59,6.29-.54,12.35-.12,15.72,1.18,0,0,6.34-6.15,8.55-13.38l1.71.61S59.93,52.4,55.79,60.6A6.37,6.37,0,0,1,49.33,64.37Z"/><path class="cls-3" d="M17.23,130.81c.09-.84.17-1.69.22-2.48H20l.06,2.48Z"/><path class="cls-10" d="M20.1,130.81c2.07,2,5.86,3.3,8.72,4a.39.39,0,0,1-.1.76H17.81a1.09,1.09,0,0,1-1.08-1.26c.15-.91.35-2.19.5-3.52Z"/><path class="cls-3" d="M37.11,130.81c.1-.84.18-1.69.22-2.48h2.59l.07,2.48Z"/><path class="cls-7" d="M40,130.81c2.06,2,5.85,3.3,8.71,4a.39.39,0,0,1-.1.76H37.69a1.1,1.1,0,0,1-1.08-1.26c.15-.91.35-2.19.5-3.52Z"/><path class="cls-7" d="M29.83,40.24c-1.49-4.23-.87-4.9,1-5s1.73,3,4.95-.43-1.54-6.2-3.56-3.41c-2.69-3.37-7-1.3-6.82.43-3.66-2.93-5.82,3-3.37,4.32-4.13,3.9,1.44,9.95,5.77,4.52-1.49-.38-1.83-3.17-.48-3.31s1.44,2.93,1.44,2.93Z"/><path class="cls-7" d="M36.46,78.29c1.93,3.95,3.38,7.3,4.45,10,2.05,5.23,2.71,13.74,1.93,19.31l-2.92,20.69H37.33s-.1-23.61-8.56-35.53C23.1,89.15,21.56,83.44,23.82,79Z"/><path class="cls-9" d="M29.79,80.27l6.06-.51s3.3,6.25-.19,7.31S29.79,80.27,29.79,80.27Z"/><path class="cls-3" d="M58.73,41.08c.35-4.57,3.14-7.82,3.25-9.3.56-.62,1.52,1,1.94,2.23s-1.41,3.65-2.34,5a5.33,5.33,0,0,0-1.14,2.71Z"/><path class="cls-7" d="M31.62,38.33c0,.64-.11,1.16-.24,1.16s-.24-.52-.24-1.16.11-1.15.24-1.15S31.62,37.69,31.62,38.33Z"/><rect class="cls-12" width="244.2" height="146.05"/></g></g></g></svg>