<svg xmlns="http://www.w3.org/2000/svg" viewBox="0 0 244.2 146.05"><defs><style>.cls-1{fill:#ffcb49;}.cls-2{fill:#f4e7d4;}.cls-3{fill:#71a3d5;}.cls-4{fill:#31193c;}.cls-5{fill:#ff97a6;}.cls-6{fill:#1f6864;}.cls-7{fill:#6c55b2;}.cls-8{fill:#c43b71;}.cls-9{fill:#970e32;}.cls-10{fill:#aacce9;}.cls-11{fill:#357a5f;}.cls-12{fill:#295a6e;}.cls-13{fill:#3b2b5a;}.cls-14{fill:#fa7089;}.cls-15{fill:#8eb9dc;}.cls-16{fill:#fff;}.cls-17{fill:none;}</style></defs><g id="Capa_2" data-name="Capa 2"><g id="Layer_1" data-name="Layer 1"><path class="cls-1" d="M76.32,20.21H17.82A2.79,2.79,0,0,0,15,23V35.57a2.79,2.79,0,0,0,2.79,2.79H53.33l7.19,4.56h2S61.62,40,61,38.36H76.32a2.79,2.79,0,0,0,2.79-2.79V23A2.79,2.79,0,0,0,76.32,20.21Z"/><path class="cls-2" d="M74.27,20.21H15.77A2.79,2.79,0,0,0,13,23V35.57a2.79,2.79,0,0,0,2.79,2.79H53.33l7.19,4.56S59.56,40,59,38.36H74.27a2.78,2.78,0,0,0,2.78-2.79V23A2.78,2.78,0,0,0,74.27,20.21Z"/><path class="cls-3" d="M67.06,87.23c-2.89-1.7-1.8-7.48,4.82-15.11,5.61-6.45,5.4-10.26,5.4-10.26L79,61.69a26.9,26.9,0,0,1-1,12.87C75.64,81.89,70.43,89.21,67.06,87.23Z"/><path class="cls-4" d="M62.93,101.61H76.64s5,9.7,4.12,24.55l1.95.53s4.76-14.17,5.71-26c.33-4-2.93-7.57-7.3-8-11.67-1.15-27.12.11-30.25,1v0C51.92,99.44,56.67,101.61,62.93,101.61Z"/><polygon class="cls-5" points="80.76 126.16 80.5 127.7 82.22 127.99 82.72 126.69 80.76 126.16"/><path class="cls-4" d="M80.5,127.7c-.51,1-1.22,2.81-1.63,3.83a.84.84,0,0,0,.56,1.09A60.87,60.87,0,0,0,89.75,135a.55.55,0,0,0,.34-1c-4.38-1.91-7.43-4.79-7.86-5.91Z"/><rect class="cls-6" x="47.37" y="92.53" width="3.44" height="42.67" transform="translate(98.19 227.72) rotate(180)"/><path class="cls-4" d="M53.27,90.94H44.92a1.58,1.58,0,0,0,1.58,1.59h5.19a1.59,1.59,0,0,0,1.58-1.59Z"/><polygon class="cls-7" points="56.16 103.65 53.01 135.2 53.59 135.2 59.19 103.65 56.16 103.65"/><polygon class="cls-7" points="65.98 103.65 69.12 135.2 68.54 135.2 62.95 103.65 65.98 103.65"/><polygon class="cls-7" points="48.83 103.65 42.03 135.2 42.61 135.2 51.86 103.65 48.83 103.65"/><polygon class="cls-7" points="73.31 103.65 80.1 135.2 79.52 135.2 70.28 103.65 73.31 103.65"/><path class="cls-8" d="M77.84,101c0,3.22-9.7,4.85-24.82,4.85-16,0-17.9-12.82-17.9-22.89,0-8.66,1.11-14.3,5.69-15.69a8.1,8.1,0,0,1,2.51-.35,5.63,5.63,0,0,1,5.62,5.63v7.11c0,3.81,4.49,14.16,8.29,14.37,12.62.7,18.39,3.32,20.07,5.58A2.4,2.4,0,0,1,77.84,101Z"/><path class="cls-9" d="M77.3,99.56c-20,6.86-32.48,3.28-35.94-4.38-2.88-6.39-3.16-22.5-.55-28a8.1,8.1,0,0,1,2.51-.35,5.63,5.63,0,0,1,5.62,5.63v7.11c0,3.81,4.49,14.16,8.29,14.37C69.85,94.68,75.62,97.3,77.3,99.56Z"/><rect class="cls-6" x="96.6" y="92.53" width="3.44" height="42.67" transform="translate(196.63 227.72) rotate(180)"/><path class="cls-4" d="M102.49,90.94H94.14a1.59,1.59,0,0,0,1.58,1.59h5.19a1.58,1.58,0,0,0,1.58-1.59Z"/><path class="cls-10" d="M67.28,92.34l-21.05-.26c-1.06-9.78-2.56-26,3.55-32.27,5-5.13,22.86-1,23.52,8.39C73.63,72.92,72.26,80.43,67.28,92.34Z"/><rect class="cls-11" x="32.06" y="92.53" width="3.44" height="42.67" transform="translate(67.56 227.72) rotate(180)"/><path class="cls-4" d="M38,90.94H29.6a1.59,1.59,0,0,0,1.58,1.59h5.2A1.59,1.59,0,0,0,38,90.94Z"/><rect class="cls-12" x="29.6" y="87.87" width="72.89" height="3.08"/><rect class="cls-11" x="91.18" y="87.87" width="11.32" height="3.08" transform="translate(193.67 178.81) rotate(180)"/><rect class="cls-11" x="81.28" y="92.53" width="3.44" height="42.67" transform="translate(166 227.72) rotate(180)"/><path class="cls-4" d="M87.18,90.94H78.82a1.59,1.59,0,0,0,1.58,1.59h5.2a1.59,1.59,0,0,0,1.58-1.59Z"/><path class="cls-5" d="M79,51.8c-1.38.82-3.72,4.08-3.72,4.08l-1-1.09s-2.5,3.94-4.76,1.1c-1.43.46-2.18,2.39-2.54,3.69A2,2,0,0,1,65.19,61c-2,.19-5.61.17-8.18-2a.93.93,0,0,1,.18-1.55c3.17-1.5,7.06-5.31,7.06-5.31l8.17-6.76Z"/><path class="cls-13" d="M56.91,101.61h9.58s2.26,6.94-3.89,21.12l1.72,1.21s8.42-10.69,13.52-21.88c1.75-3.84-1.78-9.79-6.35-9.79-11.67,0-16.44-.19-25.26-.19,0,0,.09.51.26,1.31C47.57,98.6,51.17,101.61,56.91,101.61Z"/><polygon class="cls-5" points="62.6 122.72 61.54 124.43 63.12 125.33 64.32 123.94 62.6 122.72"/><path class="cls-13" d="M61.54,124.43c-.87.83-2.19,2.31-2.94,3.18a.85.85,0,0,0,.15,1.25A64.63,64.63,0,0,0,68,134.8a.58.58,0,0,0,.7-.92c-3.6-3.41-5.57-7.3-5.6-8.55Z"/><path class="cls-13" d="M71,50.82l.6.73s2.3-2.72,3.63-2.25,4.66,4.87,6.16,5c2.08.16,5.33-3.78.89-5.59,1.76-1.43-1.73-2.94-2.71-2.7,1.13-2.91-4-5.89-5.77-3.45-.68-2.36-5,1-5,4-2.75-.92-4.88,1.61-4.6,5.61,1.61-.82,5.31-.16,6-1.31-.93-2.56,1.53-3,2.36-2.41S71,50.82,71,50.82Z"/><path class="cls-3" d="M50.71,59.94c3.94-.95,6.66,7.22,5.13,17.85S48,91.06,45.45,81,46.43,61,50.71,59.94Z"/><path class="cls-3" d="M49.55,86.72C46.71,84.19,49.2,78,58.23,71c7.64-5.93,8.25-10.21,8.25-10.21l1.9.18A30.54,30.54,0,0,1,64.4,75C60.25,82.69,52.85,89.65,49.55,86.72Z"/><path class="cls-14" d="M66.48,60.8c0-1.57-.73-2.8-.86-3.84s-1.29-2.09-.88-2.59,1.28,1.14,1.42,1.68c.21-1.94.87-3.49,2-3.69s2.78.45,2.23,1.56-1.06,1.76-1,2.85c0,1.52-1.1,2.72-.93,4.21Z"/><path class="cls-5" d="M77.28,61.86c-.28-1.36-1.12-2.3-1.4-3.18s-1.49-1.59-1.22-2.1,1.31.77,1.52,1.21c-.14-1.72.16-3.17,1.07-3.52s2.48-.1,2.2,1A5.09,5.09,0,0,0,79,57.87c.29,1.32-.49,2.55-.09,3.82Z"/><path class="cls-13" d="M68.33,33.78a4.43,4.43,0,1,1,4.44-4.43A4.43,4.43,0,0,1,68.33,33.78Z"/><path class="cls-2" d="M71.12,32l-2.46-2.73-.33-3L68,29.35a.33.33,0,0,0,.21.28Z"/><path class="cls-13" d="M33.73,33.55a.68.68,0,0,1,.68-.71.71.71,0,0,1,0,1.42A.68.68,0,0,1,33.73,33.55Zm0-1.64-.28-7.18h1.91l-.28,7.18Z"/><path class="cls-13" d="M44,25.93l.18-1.2h1.07l.18,1.2,1.32.55,1-.72.75.75-.71,1,.54,1.32,1.2.19v1.06l-1.2.18-.54,1.32.71,1-.75.75-1-.71-1.32.54-.18,1.2H44.21L44,33.12l-1.32-.54-1,.71L41,32.54l.72-1-.55-1.32L40,30.06V29l1.2-.19.55-1.32-.72-1,.75-.75,1,.72Zm-.74,3.6a1.46,1.46,0,1,0,1.46-1.46A1.45,1.45,0,0,0,43.29,29.53Z"/><path class="cls-13" d="M19.28,33.08h7.64a.58.58,0,0,1,.58.58v1.09a0,0,0,0,1,0,0H18.7a0,0,0,0,1,0,0V33.66A.58.58,0,0,1,19.28,33.08Z"/><path class="cls-13" d="M23.1,24.93a3.29,3.29,0,0,0-3.4,3.17v4.43h6.8V28.1A3.29,3.29,0,0,0,23.1,24.93Z"/><path class="cls-2" d="M24.74,28.41a.64.64,0,0,1-.64.64.64.64,0,0,1-.64-.64.64.64,0,0,1,1.28,0Z"/><path class="cls-13" d="M58.33,33.67c-2-.71-3.8-3.64-4.56-5.7-.51-1.37-.41-2.66.48-3.18.25-.14.6-.47,1,0a5.32,5.32,0,0,1,.89,1.84c.26,1-1.05.58-.84,1.54a8,8,0,0,0,1.57,2.66c.48.54.73.53,1,.34.41-.31.76-.59,1.34.07,1.12,1.27,1.35,1.73.87,2.08A1.68,1.68,0,0,1,58.33,33.67Z"/><rect class="cls-3" x="70.84" y="86.94" width="21.59" height="0.92"/><path class="cls-3" d="M66.08,87.87h4.76v-.93H65.16A.93.93,0,0,0,66.08,87.87Z"/><polygon class="cls-10" points="91.91 68.77 82.83 87.87 96.98 87.87 106.07 68.77 91.91 68.77"/><polygon class="cls-15" points="90.95 68.77 81.87 87.87 82.83 87.87 91.91 68.77 90.95 68.77"/><path class="cls-16" d="M97,78.66c-.66,2.09-2.26,3.78-3.57,3.78s-1.84-1.69-1.17-3.78,2.26-3.77,3.57-3.77S97.63,76.58,97,78.66Z"/><path class="cls-14" d="M74.78,51.88c.28.49.42.94.3,1s-.43-.28-.72-.77-.42-.95-.3-1S74.49,51.38,74.78,51.88Z"/><rect class="cls-17" width="244.2" height="146.05"/></g></g></svg>